  0
SECTION
  2
HEADER
  9
$LIMMIN
 10
0
 20
0
  9
$LIMMAX
 10
52.5
 20
74.25
  9
$EXTMIN
 10
0
 20
164.923131942749
  9
$EXTMAX
 10
0
 20
93.8676406871193
  0
ENDSEC
  0
SECTION
  2
TABLES
  0
TABLE
  2
LTYPE
 70
9
  0
LTYPE
  2
CONTINUOUS
 70
64
  3
Solid line
 72
65
 73
0
 40
0
  0
LTYPE
  2
DASHED
 70
64
  3
__ __ __ __ __ __ __ __ __
 72
65
 73
2
 40
0.75
 49
0.5
 49
-0.25
  0
LTYPE
  2
DOT
 70
64
  3
...........................
 72
65
 73
2
 40
0.25
 49
0
 49
-0.25
  0
LTYPE
  2
DASHDOT
 70
64
  3
__ . __ . __ . __ . __ . __ . 
 72
65
 73
4
 40
1
 49
0.5
 49
-0.25
 49
0
 49
-0.25
  0
ENDTAB
  0
TABLE
  2
LAYER
 70
10
  0
LAYER
  2
1
 70
0
 62
7
  6
CONTINUOUS
  0
LAYER
  2
CONNECTIONS
 70
0
 62
-7
  6
CONTINUOUS
  0
ENDTAB
  0
ENDSEC
  0
SECTION
  2
BLOCKS
  0
BLOCK
  8
0
  2
TRICON
 70
0
 10
0
 20
0
  0
POLYLINE
  8
1
 70
1
 66
1
 40
0.5
 41
0.5
  0
VERTEX
  8
1
 10
-0.25
 20
0
 42
1
  0
VERTEX
  8
1
 10
0.25
 20
0
 42
1
  0
SEQEND
  8
1
  0
ENDBLK
  8
0
  0
BLOCK
  8
0
  2
TRICONSMALL
 70
0
 10
0
 20
0
  0
POLYLINE
  8
1
 70
1
 66
1
 40
0.25
 41
0.25
  0
VERTEX
  8
1
 10
-0.125
 20
0
 42
1
  0
VERTEX
  8
1
 10
0.125
 20
0
 42
1
  0
SEQEND
  8
1
  0
ENDBLK
  8
0
  0
BLOCK
  8
0
  2
TRICONCIRCLE
 70
0
 10
0
 20
0
  0
CIRCLE
  8
1
 10
0
 20
0
 40
0.5
  0
ENDBLK
  8
0
  0
BLOCK
  8
0
  2
LCBP0
 70
0
 10
0
 20
0
  0
LINE
  8
1
 10
0
 20
-0.46875
 11
0
 21
0.46875
  0
ENDBLK
  8
0
  0
BLOCK
  8
0
  2
LCBP1
 70
0
 10
0
 20
0
  0
LINE
  8
1
 10
0
 20
-0.625
 11
0
 21
0.625
  0
ENDBLK
  8
0
  0
BLOCK
  8
0
  2
LCBP2
 70
0
 10
0
 20
0
  0
LINE
  8
1
 10
0
 20
-0.9375
 11
0
 21
0.9375
  0
ENDBLK
  8
0
  0
BLOCK
  8
0
  2
LCA1
 70
0
 10
0
 20
0
  0
SOLID
  8
1
 62
7 
 10
0
 20
0
 11
-1.4
 21
-0.275
 12
-1.4
 22
0.275
 13
-1.4
 23
0.275
  0
ENDBLK
  8
0
  0
BLOCK
  8
0
  2
LCA2
 70
0
 10
0
 20
0
  0
SOLID
  8
1
 62
7 
 10
0
 20
0
 11
-1.65
 21
-0.525
 12
-1.65
 22
0.525
 13
-1.65
 23
0.525
  0
ENDBLK
  8
0
  0
BLOCK
  8
0
  2
LCA3
 70
0
 10
0
 20
0
  0
SOLID
  8
1
 62
7 
 10
0
 20
0
 11
-2.15
 21
-1.15
 12
-2.15
 22
1.15
 13
-2.15
 23
1.15
  0
ENDBLK
  8
0
  0
BLOCK
  8
0
  2
LCA1R
 70
0
 10
0
 20
0
  0
SOLID
  8
1
 62
7 
 10
0
 20
0
 11
1.4
 21
-0.275
 12
1.4
 22
0.275
 13
1.4
 23
0.275
  0
ENDBLK
  8
0
  0
BLOCK
  8
0
  2
LCA2R
 70
0
 10
0
 20
0
  0
SOLID
  8
1
 62
7 
 10
0
 20
0
 11
1.65
 21
-0.525
 12
1.65
 22
0.525
 13
1.65
 23
0.525
  0
ENDBLK
  8
0
  0
BLOCK
  8
0
  2
LCA3R
 70
0
 10
0
 20
0
  0
SOLID
  8
1
 62
7 
 10
0
 20
0
 11
2.15
 21
-1.15
 12
2.15
 22
1.15
 13
2.15
 23
1.15
  0
ENDBLK
  8
0
  0
BLOCK
  8
0
  2
B25249_CONFCYL
 70
0
 10
0
 20
0
  0
POLYLINE
  8
1
 66
1
  0
VERTEX
  8
1
 10
3
 20
-1.5
  0
VERTEX
  8
1
 10
3.75
 20
-3
  0
VERTEX
  8
1
 10
4.5
 20
-1.5
  0
SEQEND
  8
1
  0
LINE
  8
1
 10
-8.25
 20
-1.5
 11
-8.25
 21
-4.5
  0
CIRCLE
  8
CONNECTIONS
 10
-8.25
 20
-4.5
 40
0
  0
LINE
  8
1
 10
4.5
 20
0.75
 11
4.5
 21
-1.5
  0
LINE
  8
1
 10
4.5
 20
4.5
 11
4.5
 21
2.25
  0
LINE
  8
1
 10
-9
 20
-1.5
 11
4.5
 21
-1.5
  0
LINE
  8
1
 10
-9
 20
4.5
 11
4.5
 21
4.5
  0
LINE
  8
1
 10
-9
 20
4.5
 11
-9
 21
-1.5
  0
POLYLINE
  8
1
 66
1
  0
VERTEX
  8
1
 10
-7.5
 20
4.5
  0
VERTEX
  8
1
 10
-4.5
 20
4.5
  0
VERTEX
  8
1
 10
-4.5
 20
-1.5
  0
VERTEX
  8
1
 10
-7.5
 20
-1.5
  0
VERTEX
  8
1
 10
-7.5
 20
4.5
  0
SEQEND
  8
1
  0
SOLID
  8
1
 10
-5.25
 20
3.375
 11
-5.25
 21
2.625
 12
-6
 22
2.625
 13
-6
 23
2.625
  0
SOLID
  8
1
 10
-6
 20
0.375
 11
-5.25
 21
0.375
 12
-5.25
 22
-0.375
 13
-5.25
 23
-0.375
  0
SOLID
  8
1
 10
-6.75
 20
3.375
 11
-5.25
 21
3.375
 12
-6
 22
2.625
 13
-6
 23
2.625
  0
SOLID
  8
1
 10
-6
 20
0.375
 11
-5.25
 21
-0.375
 12
-6.75
 22
-0.375
 13
-6.75
 23
-0.375
  0
SOLID
  8
1
 10
-6.75
 20
-0.375
 11
-6.75
 21
3.375
 12
-6
 22
2.625
 13
-6
 23
2.625
  0
SOLID
  8
1
 10
-6
 20
2.625
 11
-6
 21
0.375
 12
-6.75
 22
-0.375
 13
-6.75
 23
-0.375
  0
POLYLINE
  8
1
 66
1
  0
VERTEX
  8
1
 10
-4.5
 20
2.25
  0
VERTEX
  8
1
 10
9
 20
2.25
  0
VERTEX
  8
1
 10
9
 20
0.75
  0
VERTEX
  8
1
 10
-4.5
 20
0.75
  0
VERTEX
  8
1
 10
-4.5
 20
2.25
  0
SEQEND
  8
1
  0
POLYLINE
  8
1
 66
1
  0
VERTEX
  8
1
 10
-4.5
 20
-1.5
  0
VERTEX
  8
1
 10
-3
 20
4.5
  0
VERTEX
  8
1
 10
-1.5
 20
-1.5
  0
VERTEX
  8
1
 10
0
 20
4.5
  0
VERTEX
  8
1
 10
1.5
 20
-1.5
  0
VERTEX
  8
1
 10
3
 20
4.5
  0
VERTEX
  8
1
 10
4.5
 20
-1.5
  0
SEQEND
  8
1
  0
ENDBLK
  8
0
  0
BLOCK
  8
0
  2
B25253
 70
0
 10
0
 20
0
  0
LINE
  8
1
 10
0
 20
-1.5
 11
0
 21
4.5
  0
POLYLINE
  8
1
 66
1
  0
VERTEX
  8
1
 10
3
 20
0
  0
VERTEX
  8
1
 10
4.5
 20
-1.5
  0
VERTEX
  8
1
 10
3
 20
-3
  0
SEQEND
  8
1
  0
POLYLINE
  8
1
 66
1
  0
VERTEX
  8
1
 10
-3
 20
0
  0
VERTEX
  8
1
 10
-4.5
 20
-1.5
  0
VERTEX
  8
1
 10
-3
 20
-3
  0
SEQEND
  8
1
  0
POLYLINE
  8
1
 66
1
  0
VERTEX
  8
1
 10
-6
 20
1.5
  0
VERTEX
  8
1
 10
6
 20
1.5
  0
VERTEX
  8
1
 10
6
 20
-4.5
  0
VERTEX
  8
1
 10
-6
 20
-4.5
  0
VERTEX
  8
1
 10
-6
 20
1.5
  0
SEQEND
  8
1
  0
CIRCLE
  8
CONNECTIONS
 10
-9
 20
-1.5
 40
0
  0
CIRCLE
  8
CONNECTIONS
 10
9
 20
-1.5
 40
0
  0
CIRCLE
  8
CONNECTIONS
 10
0
 20
4.5
 40
0
  0
CIRCLE
  8
1
 10
-3.43933982822017
 20
-1.5
 40
0.75
  0
LINE
  8
1
 10
-9
 20
-1.5
 11
-4.18933982822018
 21
-1.5
  0
LINE
  8
1
 10
-2.68933982822017
 20
-1.5
 11
9
 21
-1.5
  0
POLYLINE
  8
1
 70
1
 66
1
 40
0.375
 41
0.375
  0
VERTEX
  8
1
 10
-0.1875
 20
-1.5
 42
1
  0
VERTEX
  8
1
 10
0.1875
 20
-1.5
 42
1
  0
SEQEND
  8
1
  0
ENDBLK
  8
0
  0
BLOCK
  8
0
  2
B25256
 70
0
 10
0
 20
0
  0
TEXT
  8
1
 40
1.51875
 41
0.75
  1
2
  7
STANDARD
 72
2
 73
2
 10
1.04122138023376
 20
0
 11
1.04122138023376
 21
0
  0
ENDBLK
  8
0
  0
BLOCK
  8
0
  2
B25257
 70
0
 10
0
 20
0
  0
TEXT
  8
1
 40
1.51875
 41
0.75
  1
1
  7
STANDARD
 73
2
 10
-1.04122138023376
 20
0
 11
-1.04122138023376
 21
0
  0
ENDBLK
  8
0
  0
BLOCK
  8
0
  2
B25258
 70
0
 10
0
 20
0
  0
TEXT
  8
1
 40
1.51875
 41
0.75
  1
1
  7
STANDARD
 72
2
 73
2
 10
1.04122138023376
 20
0
 11
1.04122138023376
 21
0
  0
ENDBLK
  8
0
  0
BLOCK
  8
0
  2
B25259
 70
0
 10
0
 20
0
  0
TEXT
  8
1
 40
1.51875
 41
0.75
  1
2
  7
STANDARD
 72
1
 73
2
 10
0
 20
0
 11
0
 21
0
  0
ENDBLK
  8
0
  0
BLOCK
  8
0
  2
B25260
 70
0
 10
0
 20
0
  0
TEXT
  8
1
 40
1.51875
 41
0.75
  1
1
  7
STANDARD
 72
1
 73
2
 10
0
 20
0
 11
0
 21
0
  0
ENDBLK
  8
0
  0
BLOCK
  8
0
  2
B25261
 70
0
 10
0
 20
0
  0
TEXT
  8
1
 40
1.51875
 41
0.75
  1
3
  7
STANDARD
 72
1
 73
2
 10
0
 20
0
 11
0
 21
0
  0
ENDBLK
  8
0
  0
BLOCK
  8
0
  2
B25263_CONFDV
 70
0
 10
0
 20
0
  0
LINE
  8
1
 10
-7.875
 20
3
 11
-7.875
 21
0
  0
LINE
  8
1
 10
-11.625
 20
3
 11
-11.625
 21
0
  0
LINE
  8
1
 10
-7.875
 20
2.25
 11
-11.625
 21
2.25
  0
LINE
  8
1
 10
-7.875
 20
0.75
 11
-11.625
 21
0.75
  0
LINE
  8
1
 10
-3.375
 20
0
 11
-7.875
 21
0
  0
LINE
  8
1
 10
-10.875
 20
-3
 11
-9.375
 21
0
  0
POLYLINE
  8
1
 66
1
  0
VERTEX
  8
1
 10
-12.375
 20
0
  0
VERTEX
  8
1
 10
-7.875
 20
0
  0
VERTEX
  8
1
 10
-7.875
 20
-3
  0
VERTEX
  8
1
 10
-12.375
 20
-3
  0
VERTEX
  8
1
 10
-12.375
 20
0
  0
SEQEND
  8
1
  0
CIRCLE
  8
CONNECTIONS
 10
-12.375
 20
-1.5
 40
0
  0
LINE
  8
1
 10
-7.875
 20
0
 11
-7.875
 21
-3
  0
LINE
  8
1
 10
-7.875
 20
0
 11
-5.27692378864668
 21
-1.5
  0
LINE
  8
1
 10
-7.875
 20
-3
 11
-5.27692378864668
 21
-1.5
  0
POLYLINE
  8
1
 66
1
  0
VERTEX
  8
1
 10
-7.875
 20
0
  0
VERTEX
  8
1
 10
-3.375
 20
0
  0
VERTEX
  8
1
 10
-3.375
 20
-3
  0
VERTEX
  8
1
 10
-7.875
 20
-3
  0
VERTEX
  8
1
 10
-7.875
 20
0
  0
SEQEND
  8
1
  0
LINE
  8
1
 10
-1.875
 20
3
 11
1.125
 21
-3
  0
INSERT
  8
1
  2
LCA1
 10
1.125
 20
-3
 50
-63.434948822922
  0
LINE
  8
1
 10
-1.875
 20
-3
 11
-1.875
 21
-1.5
  0
INSERT
  8
1
  2
LCBP1
 10
-1.875
 20
-1.5
 50
90
  0
POLYLINE
  8
1
 66
1
  0
VERTEX
  8
1
 10
-3.375
 20
3
  0
VERTEX
  8
1
 10
2.625
 20
3
  0
VERTEX
  8
1
 10
2.625
 20
-3
  0
VERTEX
  8
1
 10
-3.375
 20
-3
  0
VERTEX
  8
1
 10
-3.375
 20
3
  0
SEQEND
  8
1
  0
LINE
  8
1
 10
7.125
 20
-3
 11
7.125
 21
-6
  0
LINE
  8
1
 10
4.125
 20
-3
 11
4.125
 21
-6
  0
LINE
  8
1
 10
4.125
 20
3
 11
4.125
 21
6
  0
CIRCLE
  8
CONNECTIONS
 10
4.125
 20
6
 40
0
  0
CIRCLE
  8
CONNECTIONS
 10
4.125
 20
-6
 40
0
  0
CIRCLE
  8
CONNECTIONS
 10
7.125
 20
-6
 40
0
  0
LINE
  8
1
 10
7.125
 20
-3
 11
7.125
 21
-1.5
  0
INSERT
  8
1
  2
LCBP1
 10
7.125
 20
-1.5
 50
90
  0
LINE
  8
1
 10
4.125
 20
-3
 11
4.125
 21
3
  0
INSERT
  8
1
  2
LCA1
 10
4.125
 20
3
 50
90
  0
POLYLINE
  8
1
 66
1
  0
VERTEX
  8
1
 10
2.625
 20
3
  0
VERTEX
  8
1
 10
8.625
 20
3
  0
VERTEX
  8
1
 10
8.625
 20
-3
  0
VERTEX
  8
1
 10
2.625
 20
-3
  0
VERTEX
  8
1
 10
2.625
 20
3
  0
SEQEND
  8
1
  0
POLYLINE
  8
1
 66
1
  0
VERTEX
  8
1
 10
12.375
 20
-1.5
  0
VERTEX
  8
1
 10
12.0625
 20
-3
  0
VERTEX
  8
1
 10
11.4375
 20
0
  0
VERTEX
  8
1
 10
10.8125
 20
-3
  0
VERTEX
  8
1
 10
10.1875
 20
0
  0
VERTEX
  8
1
 10
9.5625
 20
-3
  0
VERTEX
  8
1
 10
8.9375
 20
0
  0
VERTEX
  8
1
 10
8.625
 20
-1.5
  0
SEQEND
  8
1
  0
ENDBLK
  8
0
  0
BLOCK
  8
0
  2
B25267
 70
0
 10
0
 20
0
  0
LINE
  8
1
 10
-1.25
 20
1
 11
1.25
 21
1
  0
LINE
  8
1
 10
1.25
 20
1
 11
0
 21
-1
  0
LINE
  8
1
 10
0
 20
-1
 11
-1.25
 21
1
  0
CIRCLE
  8
CONNECTIONS
 10
0
 20
1
 40
0
  0
ENDBLK
  8
0
  0
BLOCK
  8
0
  2
B25262
 70
0
 10
0
 20
0
  0
ENDBLK
  8
0
  0
BLOCK
  8
0
  2
B25270
 70
0
 10
0
 20
0
  0
TEXT
  8
1
 40
1.51875
 41
0.75
  1
2
  7
STANDARD
 72
1
 73
2
 10
0
 20
0
 11
0
 21
0
  0
ENDBLK
  8
0
  0
BLOCK
  8
0
  2
B25271
 70
0
 10
0
 20
0
  0
TEXT
  8
1
 40
1.51875
 41
0.75
  1
1
  7
STANDARD
 72
1
 73
2
 10
0
 20
0
 11
0
 21
0
  0
ENDBLK
  8
0
  0
BLOCK
  8
0
  2
B25272
 70
0
 10
0
 20
0
  0
TEXT
  8
1
 40
1.51875
 41
0.75
  1
3
  7
STANDARD
 72
1
 73
2
 10
0
 20
0
 11
0
 21
0
  0
ENDBLK
  8
0
  0
BLOCK
  8
0
  2
B25274_CONFDV
 70
0
 10
0
 20
0
  0
LINE
  8
1
 10
-7.875
 20
3
 11
-7.875
 21
0
  0
LINE
  8
1
 10
-11.625
 20
3
 11
-11.625
 21
0
  0
LINE
  8
1
 10
-7.875
 20
2.25
 11
-11.625
 21
2.25
  0
LINE
  8
1
 10
-7.875
 20
0.75
 11
-11.625
 21
0.75
  0
LINE
  8
1
 10
-3.375
 20
0
 11
-7.875
 21
0
  0
LINE
  8
1
 10
-10.875
 20
-3
 11
-9.375
 21
0
  0
POLYLINE
  8
1
 66
1
  0
VERTEX
  8
1
 10
-12.375
 20
0
  0
VERTEX
  8
1
 10
-7.875
 20
0
  0
VERTEX
  8
1
 10
-7.875
 20
-3
  0
VERTEX
  8
1
 10
-12.375
 20
-3
  0
VERTEX
  8
1
 10
-12.375
 20
0
  0
SEQEND
  8
1
  0
CIRCLE
  8
CONNECTIONS
 10
-12.375
 20
-1.5
 40
0
  0
LINE
  8
1
 10
-7.875
 20
0
 11
-7.875
 21
-3
  0
LINE
  8
1
 10
-7.875
 20
0
 11
-5.27692378864668
 21
-1.5
  0
LINE
  8
1
 10
-7.875
 20
-3
 11
-5.27692378864668
 21
-1.5
  0
POLYLINE
  8
1
 66
1
  0
VERTEX
  8
1
 10
-7.875
 20
0
  0
VERTEX
  8
1
 10
-3.375
 20
0
  0
VERTEX
  8
1
 10
-3.375
 20
-3
  0
VERTEX
  8
1
 10
-7.875
 20
-3
  0
VERTEX
  8
1
 10
-7.875
 20
0
  0
SEQEND
  8
1
  0
LINE
  8
1
 10
1.125
 20
-3
 11
1.125
 21
-1.5
  0
INSERT
  8
1
  2
LCBP1
 10
1.125
 20
-1.5
 50
90
  0
LINE
  8
1
 10
-1.875
 20
-3
 11
-1.875
 21
3
  0
INSERT
  8
1
  2
LCA1
 10
-1.875
 20
3
 50
90
  0
POLYLINE
  8
1
 66
1
  0
VERTEX
  8
1
 10
-3.375
 20
3
  0
VERTEX
  8
1
 10
2.625
 20
3
  0
VERTEX
  8
1
 10
2.625
 20
-3
  0
VERTEX
  8
1
 10
-3.375
 20
-3
  0
VERTEX
  8
1
 10
-3.375
 20
3
  0
SEQEND
  8
1
  0
LINE
  8
1
 10
7.125
 20
-3
 11
7.125
 21
-6
  0
LINE
  8
1
 10
4.125
 20
-3
 11
4.125
 21
-6
  0
LINE
  8
1
 10
4.125
 20
3
 11
4.125
 21
6
  0
CIRCLE
  8
CONNECTIONS
 10
4.125
 20
6
 40
0
  0
CIRCLE
  8
CONNECTIONS
 10
4.125
 20
-6
 40
0
  0
CIRCLE
  8
CONNECTIONS
 10
7.125
 20
-6
 40
0
  0
LINE
  8
1
 10
4.125
 20
3
 11
7.125
 21
-3
  0
INSERT
  8
1
  2
LCA1
 10
7.125
 20
-3
 50
-63.434948822922
  0
LINE
  8
1
 10
4.125
 20
-3
 11
4.125
 21
-1.5
  0
INSERT
  8
1
  2
LCBP1
 10
4.125
 20
-1.5
 50
90
  0
POLYLINE
  8
1
 66
1
  0
VERTEX
  8
1
 10
2.625
 20
3
  0
VERTEX
  8
1
 10
8.625
 20
3
  0
VERTEX
  8
1
 10
8.625
 20
-3
  0
VERTEX
  8
1
 10
2.625
 20
-3
  0
VERTEX
  8
1
 10
2.625
 20
3
  0
SEQEND
  8
1
  0
POLYLINE
  8
1
 66
1
  0
VERTEX
  8
1
 10
12.375
 20
-1.5
  0
VERTEX
  8
1
 10
12.0625
 20
-3
  0
VERTEX
  8
1
 10
11.4375
 20
0
  0
VERTEX
  8
1
 10
10.8125
 20
-3
  0
VERTEX
  8
1
 10
10.1875
 20
0
  0
VERTEX
  8
1
 10
9.5625
 20
-3
  0
VERTEX
  8
1
 10
8.9375
 20
0
  0
VERTEX
  8
1
 10
8.625
 20
-1.5
  0
SEQEND
  8
1
  0
ENDBLK
  8
0
  0
BLOCK
  8
0
  2
B25278
 70
0
 10
0
 20
0
  0
LINE
  8
1
 10
-1.25
 20
1
 11
1.25
 21
1
  0
LINE
  8
1
 10
1.25
 20
1
 11
0
 21
-1
  0
LINE
  8
1
 10
0
 20
-1
 11
-1.25
 21
1
  0
CIRCLE
  8
CONNECTIONS
 10
0
 20
1
 40
0
  0
ENDBLK
  8
0
  0
BLOCK
  8
0
  2
B25273
 70
0
 10
0
 20
0
  0
ENDBLK
  8
0
  0
BLOCK
  8
0
  2
B25281
 70
0
 10
0
 20
0
  0
LINE
  8
1
 10
-6.75
 20
3
 11
-6.75
 21
-3
  0
INSERT
  8
1
  2
LCA2
 10
-6.75
 20
-3
 50
-90
  0
INSERT
  8
1
  2
LCA2R
 10
-6.75
 20
3
 50
-90
  0
LINE
  8
1
 10
-6.75
 20
6
 11
-6.75
 21
3
  0
POLYLINE
  8
1
 66
1
  0
VERTEX
  8
1
 10
-8.25
 20
3
  0
VERTEX
  8
1
 10
-2.25
 20
3
  0
VERTEX
  8
1
 10
-2.25
 20
-3
  0
VERTEX
  8
1
 10
-8.25
 20
-3
  0
VERTEX
  8
1
 10
-8.25
 20
3
  0
SEQEND
  8
1
  0
POLYLINE
  8
1
 66
1
  0
VERTEX
  8
1
 10
-2.25
 20
0
  0
VERTEX
  8
1
 10
6.75
 20
0
  0
VERTEX
  8
1
 10
6.75
 20
-3
  0
VERTEX
  8
1
 10
-2.25
 20
-3
  0
VERTEX
  8
1
 10
-2.25
 20
0
  0
SEQEND
  8
1
  0
LINE
  8
1
 10
-3.75
 20
-3
 11
-3.75
 21
-6
  0
LINE
  8
1
 10
-6.75
 20
-3
 11
-6.75
 21
-6
  0
TEXT
  8
1
 40
1.35
 41
0.75
  1
P
  7
STANDARD
 73
2
 10
6.81214082241058
 20
2.625
 11
6.81214082241058
 21
2.625
  0
LINE
  8
1
 10
9.375
 20
4.875
 11
9.375
 21
4.125
  0
ARC
  8
1
 10
10.125
 20
4.875
 40
0.75
 50
0
 51
180
  0
LINE
  8
1
 10
10.875
 20
4.875
 11
10.875
 21
4.125
  0
LINE
  8
1
 10
6.75
 20
6
 11
11.25
 21
1.5
  0
POLYLINE
  8
1
 66
1
  0
VERTEX
  8
1
 10
6.75
 20
6
  0
VERTEX
  8
1
 10
11.25
 20
6
  0
VERTEX
  8
1
 10
11.25
 20
1.5
  0
VERTEX
  8
1
 10
6.75
 20
1.5
  0
VERTEX
  8
1
 10
6.75
 20
6
  0
SEQEND
  8
1
  0
POLYLINE
  8
1
 66
1
  0
VERTEX
  8
1
 10
2.25
 20
0
  0
VERTEX
  8
1
 10
2.25
 20
-3
  0
VERTEX
  8
1
 10
-0.75
 20
-1.5
  0
VERTEX
  8
1
 10
2.25
 20
0
  0
SEQEND
  8
1
  0
LINE
  8
1
 10
5.25
 20
-3
 11
3.75
 21
0
  0
LINE
  8
1
 10
10.125
 20
-1.875
 11
9.2683281573
 21
-1.44666407865
  0
LINE
  8
1
 10
8.73167184270005
 20
-1.17833592135003
 11
7.875
 21
-0.75
  0
LINE
  8
1
 10
10.125
 20
0.375
 11
9.2683281573
 21
-0.0533359213500013
  0
LINE
  8
1
 10
8.73167184270005
 20
-0.321664078649973
 11
7.875
 21
-0.75
  0
LINE
  8
1
 10
10.125
 20
-1.05
 11
10.125
 21
-1.875
  0
LINE
  8
1
 10
10.125
 20
0.375
 11
10.125
 21
-0.45
  0
POLYLINE
  8
1
 66
1
  0
VERTEX
  8
1
 10
6.75
 20
1.5
  0
VERTEX
  8
1
 10
11.25
 20
1.5
  0
VERTEX
  8
1
 10
11.25
 20
-3
  0
VERTEX
  8
1
 10
6.75
 20
-3
  0
VERTEX
  8
1
 10
6.75
 20
1.5
  0
SEQEND
  8
1
  0
POLYLINE
  8
1
  6
DOT
 66
1
  0
VERTEX
  8
1
 10
-6.75
 20
3
  0
VERTEX
  8
1
 10
-8.25
 20
4.5
  0
VERTEX
  8
1
 10
-11.25
 20
4.5
  0
VERTEX
  8
1
 10
-11.25
 20
-1.5
  0
VERTEX
  8
1
 10
-8.25
 20
-1.5
  0
SEQEND
  8
1
  0
CIRCLE
  8
CONNECTIONS
 10
-3.75
 20
-6
 40
0
  0
CIRCLE
  8
CONNECTIONS
 10
-6.75
 20
-6
 40
0
  0
CIRCLE
  8
CONNECTIONS
 10
11.25
 20
-1.5
 40
0
  0
CIRCLE
  8
CONNECTIONS
 10
-6.75
 20
6
 40
0
  0
ENDBLK
  8
0
  0
BLOCK
  8
0
  2
B25284
 70
0
 10
0
 20
0
  0
TEXT
  8
1
 40
1.51875
 41
0.75
  1
2
  7
STANDARD
 73
2
 10
-1.04122138023376
 20
0
 11
-1.04122138023376
 21
0
  0
ENDBLK
  8
0
  0
BLOCK
  8
0
  2
B25285
 70
0
 10
0
 20
0
  0
TEXT
  8
1
 40
1.51875
 41
0.75
  1
3
  7
STANDARD
 73
2
 10
-1.04122138023376
 20
0
 11
-1.04122138023376
 21
0
  0
ENDBLK
  8
0
  0
BLOCK
  8
0
  2
B25286
 70
0
 10
0
 20
0
  0
TEXT
  8
1
 40
1.51875
 41
0.75
  1
1
  7
STANDARD
 72
2
 73
2
 10
1.04122138023376
 20
0
 11
1.04122138023376
 21
0
  0
ENDBLK
  8
0
  0
BLOCK
  8
0
  2
B25287
 70
0
 10
0
 20
0
  0
LINE
  8
1
 10
-1.25
 20
-0.25
 11
1.25
 21
-0.25
  0
LINE
  8
1
 10
1.25
 20
-0.25
 11
0
 21
-2.25
  0
LINE
  8
1
 10
0
 20
-2.25
 11
-1.25
 21
-0.25
  0
LINE
  8
1
 10
0
 20
-0.25
 11
0
 21
2.25
  0
CIRCLE
  8
CONNECTIONS
 10
0
 20
2.25
 40
0
  0
ENDBLK
  8
0
  0
BLOCK
  8
0
  2
B25290
 70
0
 10
0
 20
0
  0
CIRCLE
  8
CONNECTIONS
 10
0
 20
0
 40
0
  0
CIRCLE
  8
CONNECTIONS
 10
0
 20
0
 40
0
  0
CIRCLE
  8
CONNECTIONS
 10
0
 20
0
 40
0
  0
CIRCLE
  8
CONNECTIONS
 10
0
 20
0
 40
0
  0
ENDBLK
  8
0
  0
BLOCK
  8
0
  2
B25292
 70
0
 10
0
 20
0
  0
LINE
  8
1
 10
0
 20
-4.5
 11
0
 21
-7.5
  0
ARC
  8
1
 10
0
 20
-1.5
 40
3
 50
180
 51
0
  0
LINE
  8
1
 10
3
 20
4.5
 11
3
 21
-1.5
  0
LINE
  8
1
 10
-3
 20
4.5
 11
-3
 21
-1.5
  0
ARC
  8
1
 10
0
 20
4.5
 40
3
 50
0
 51
180
  0
CIRCLE
  8
CONNECTIONS
 10
0
 20
-7.5
 40
0
  0
ENDBLK
  8
0
  0
BLOCK
  8
0
  2
B25298
 70
0
 10
0
 20
0
  0
LINE
  8
1
 10
6
 20
-2.56617965644034
 11
18
 21
-2.56617965644034
  0
POLYLINE
  8
1
  6
DASHDOT
 66
1
  0
VERTEX
  8
1
 10
-15
 20
10.9338203435597
  0
VERTEX
  8
1
 10
15
 20
10.9338203435597
  0
VERTEX
  8
1
 10
15
 20
-9.31617965644034
  0
VERTEX
  8
1
 10
-15
 20
-9.31617965644034
  0
VERTEX
  8
1
 10
-15
 20
10.9338203435597
  0
SEQEND
  8
1
  0
LINE
  8
1
 10
-9.25735931288072
 20
-6.80882034355964
 11
-9.25735931288072
 21
-10.9338203435596
  0
LINE
  8
1
  6
DOT
 10
-9.25735931288072
 20
1.67646103067894
 11
-9.25735931288072
 21
-5.30882034355964
  0
LINE
  8
1
 10
-13.5
 20
-2.56617965644034
 11
-18
 21
-2.56617965644034
  0
LINE
  8
1
 10
-5.01471862576145
 20
-2.56617965644034
 11
0
 21
-2.56617965644034
  0
LINE
  8
1
 10
-10.7573799673287
 20
-5.30882034355963
 11
-7.75738050180152
 21
-5.30882034355963
  0
POLYLINE
  8
1
 66
1
  0
VERTEX
  8
1
 10
-9.25735931288072
 20
1.67646103067892
  0
VERTEX
  8
1
 10
-13.5
 20
-2.56617965644034
  0
VERTEX
  8
1
 10
-9.25735931288072
 20
-6.80882034355963
  0
VERTEX
  8
1
 10
-5.01471862576143
 20
-2.56617965644034
  0
VERTEX
  8
1
 10
-9.25735931288072
 20
1.67646103067892
  0
SEQEND
  8
1
  0
POLYLINE
  8
1
  6
DOT
 66
1
  0
VERTEX
  8
1
 10
6
 20
-2.56617965644034
  0
VERTEX
  8
1
 10
7.5
 20
-4.06617965644034
  0
VERTEX
  8
1
 10
7.5
 20
-7.06617965644034
  0
VERTEX
  8
1
 10
1.5
 20
-7.06617965644034
  0
SEQEND
  8
1
  0
LINE
  8
1
  6
DOT
 10
1.5
 20
-7.06617965644034
 11
1.5
 21
-4.06617965644034
  0
POLYLINE
  8
1
 66
1
  0
VERTEX
  8
1
 10
0
 20
1.18382034355966
  0
VERTEX
  8
1
 10
-1.5
 20
0.43382034355966
  0
VERTEX
  8
1
 10
0
 20
-0.31617965644034
  0
SEQEND
  8
1
  0
POLYLINE
  8
1
 66
1
  0
VERTEX
  8
1
 10
0
 20
1.93382034355966
  0
VERTEX
  8
1
 10
6
 20
1.93382034355966
  0
VERTEX
  8
1
 10
6
 20
-4.06617965644034
  0
VERTEX
  8
1
 10
0
 20
-4.06617965644034
  0
VERTEX
  8
1
 10
0
 20
1.93382034355966
  0
SEQEND
  8
1
  0
LINE
  8
1
 10
10.5
 20
3.43382034355966
 11
10.5
 21
-2.56617965644034
  0
LINE
  8
1
 10
11.8258252146909
 20
5.10799512886875
 11
9.17417478529415
 21
7.7596455582655
  0
INSERT
  8
1
  2
LCA2
 10
9.17417478529415
 20
7.7596455582655
 50
135
  0
CIRCLE
  8
1
 10
10.5
 20
6.43382034355966
 40
3
  0
CIRCLE
  8
CONNECTIONS
 10
-18
 20
-2.56617965644034
 40
0
  0
CIRCLE
  8
CONNECTIONS
 10
18
 20
-2.56617965644034
 40
0
  0
POLYLINE
  8
1
 66
1
  0
VERTEX
  8
1
 10
1.5
 20
5.68380534355967
  0
VERTEX
  8
1
 10
0
 20
5.37130659355967
  0
VERTEX
  8
1
 10
3
 20
4.74630909355966
  0
VERTEX
  8
1
 10
0
 20
4.12131159355965
  0
VERTEX
  8
1
 10
3
 20
3.49631409355965
  0
VERTEX
  8
1
 10
0
 20
2.87131659355967
  0
VERTEX
  8
1
 10
3
 20
2.24631909355966
  0
VERTEX
  8
1
 10
1.5
 20
1.93382034355966
  0
SEQEND
  8
1
  0
LINE
  8
1
 10
-1.87500000000002
 20
3.05881284355965
 11
4.87499999999998
 21
4.55881284355965
  0
INSERT
  8
1
  2
LCA1
 10
4.87499999999998
 20
4.55881284355965
 50
12.5288077091515
  0
LINE
  8
1
 10
0
 20
-2.56617965644034
 11
6
 21
-2.56617965644034
  0
INSERT
  8
1
  2
LCA2
 10
6
 20
-2.56617965644034
 50
0
  0
INSERT
  8
1
  2
LCA2R
 10
0
 20
-2.56617965644034
 50
0
  0
ENDBLK
  8
0
  0
BLOCK
  8
0
  2
B25305
 70
0
 10
0
 20
0
  0
TEXT
  8
1
 40
1.51875
 41
0.75
  1
EBS Valve
  7
STANDARD
 72
2
 73
2
 10
5.53016471862793
 20
0
 11
5.53016471862793
 21
0
  0
ENDBLK
  8
0
  0
BLOCK
  8
0
  2
B25306
 70
0
 10
0
 20
0
  0
TEXT
  8
1
 40
1.51875
 41
0.75
  1
ASB Valve
  7
STANDARD
 72
2
 73
2
 10
5.69839286804199
 20
0
 11
5.69839286804199
 21
0
  0
ENDBLK
  8
0
  0
BLOCK
  8
0
  2
B25307
 70
0
 10
0
 20
0
  0
TEXT
  8
1
 40
1.51875
 41
0.75
  1
ASB Control
  7
STANDARD
 73
2
 10
-6.79931449890137
 20
0
 11
-6.79931449890137
 21
0
  0
ENDBLK
  8
0
  0
BLOCK
  8
0
  2
B25308
 70
0
 10
0
 20
0
  0
LINE
  8
1
 10
3.1125
 20
0
 11
3.6375
 21
0
  0
LINE
  8
1
 10
2.025
 20
0
 11
3.375
 21
0.525
  0
LINE
  8
1
 10
1.5
 20
0
 11
2.025
 21
0
  0
TEXT
  8
1
 40
1.35
 41
0.75
  1
P
  7
STANDARD
 73
2
 10
-1.06285917758941
 20
-3
 11
-1.06285917758941
 21
-3
  0
LINE
  8
1
 10
-4.5
 20
-1.5
 11
-1.5
 21
-1.5
  0
LINE
  8
1
 10
4.5
 20
-4.5
 11
-1.5
 21
1.5
  0
POLYLINE
  8
1
 66
1
  0
VERTEX
  8
1
 10
-1.5
 20
1.5
  0
VERTEX
  8
1
 10
4.5
 20
1.5
  0
VERTEX
  8
1
 10
4.5
 20
-4.5
  0
VERTEX
  8
1
 10
-1.5
 20
-4.5
  0
VERTEX
  8
1
 10
-1.5
 20
1.5
  0
SEQEND
  8
1
  0
LINE
  8
1
 10
-4.125
 20
1.875
 11
1.125
 21
4.125
  0
INSERT
  8
1
  2
LCA2
 10
1.125
 20
4.125
 50
23.1985905136482
  0
LINE
  8
1
 10
-1.5
 20
1.5
 11
-1.5
 21
4.5
  0
CIRCLE
  8
CONNECTIONS
 10
-4.5
 20
-1.5
 40
0
  0
CIRCLE
  8
CONNECTIONS
 10
1.5
 20
-1.5
 40
0
  0
ENDBLK
  8
0
  0
BLOCK
  8
0
  2
B25312
 70
0
 10
0
 20
0
  0
TEXT
  8
1
 40
2.19375
 41
0.75
  1
Pressure Sensor
  7
STANDARD
 72
2
 10
12.7115659713745
 20
-1.36614747047424
 11
12.7115659713745
 21
-1.36614747047424
  0
ENDBLK
  8
0
  0
BLOCK
  8
0
  2
B25313
 70
0
 10
0
 20
0
  0
CIRCLE
  8
CONNECTIONS
 10
0
 20
0
 40
0
  0
CIRCLE
  8
CONNECTIONS
 10
0
 20
0
 40
0
  0
CIRCLE
  8
CONNECTIONS
 10
0
 20
0
 40
0
  0
CIRCLE
  8
CONNECTIONS
 10
0
 20
0
 40
0
  0
ENDBLK
  8
0
  0
BLOCK
  8
0
  2
B25315
 70
0
 10
0
 20
0
  0
LINE
  8
1
 10
2.25
 20
0
 11
3.75
 21
0
  0
LINE
  8
1
 10
0.575825214690916
 20
-1.32582521469091
 11
-2.07582521470584
 21
1.32582521470584
  0
INSERT
  8
1
  2
LCA2
 10
-2.07582521470584
 20
1.32582521470584
 50
135
  0
CIRCLE
  8
1
 10
-0.75
 20
0
 40
3
  0
CIRCLE
  8
CONNECTIONS
 10
3.75
 20
0
 40
0
  0
ENDBLK
  8
0
  0
BLOCK
  8
0
  2
B25319
 70
0
 10
0
 20
0
  0
CIRCLE
  8
CONNECTIONS
 10
0
 20
0
 40
0
  0
CIRCLE
  8
CONNECTIONS
 10
0
 20
0
 40
0
  0
CIRCLE
  8
CONNECTIONS
 10
0
 20
0
 40
0
  0
CIRCLE
  8
CONNECTIONS
 10
0
 20
0
 40
0
  0
ENDBLK
  8
0
  0
ENDSEC
  0
SECTION
  2
ENTITIES
  0
INSERT
  8
1
  2
B25249_CONFCYL
 10
141.74995
 20
89.3676406871193
  0
INSERT
  8
1
  2
B25253
 10
133.499975
 20
68.3676406871193
  0
INSERT
  8
1
  2
B25256
 10
131.395710263824
 20
71.36763822416
  0
INSERT
  8
1
  2
B25257
 10
141.291196380234
 20
64.61763822416
  0
INSERT
  8
1
  2
B25258
 10
125.770710263824
 20
64.61763822416
  0
INSERT
  8
1
  2
B25259
 10
102.499975
 20
54.3676356178635
  0
INSERT
  8
1
  2
B25260
 10
102.499975
 20
43.3676356178635
  0
INSERT
  8
1
  2
B25261
 10
110.999975
 20
43.3676356178635
  0
INSERT
  8
1
  2
B25263_CONFDV
 10
100.875
 20
48.8676406871193
  0
INSERT
  8
1
  2
B25267
 10
107.999975
 20
41.8676406871193
  0
INSERT
  8
1
  2
B25262
 10
100.875
 20
47.8676406871193
  0
INSERT
  8
1
  2
B25270
 10
159.5
 20
30.3676356178635
  0
INSERT
  8
1
  2
B25271
 10
159.5
 20
19.3676356178635
  0
INSERT
  8
1
  2
B25272
 10
168
 20
19.3676356178635
  0
INSERT
  8
1
  2
B25274_CONFDV
 10
157.875
 20
24.8676356178635
  0
INSERT
  8
1
  2
B25278
 10
165
 20
17.8676356178635
  0
INSERT
  8
1
  2
B25273
 10
157.875
 20
23.8676356178635
  0
INSERT
  8
1
  2
B25281
 10
168.75
 20
48.8676406871193
  0
INSERT
  8
1
  2
B25284
 10
164.322718058205
 20
54.1176406871193
  0
INSERT
  8
1
  2
B25285
 10
167.166196380234
 20
43.2426406871193
  0
INSERT
  8
1
  2
B25286
 10
159.895710263824
 20
43.2426406871193
  0
INSERT
  8
1
  2
B25287
 10
164.999975
 20
36.1176406871193
  0
INSERT
  8
1
  2
TRICON
 10
162
 20
9.86764068711929
  0
INSERT
  8
1
  2
B25292
 10
220.5
 20
33.8676406871193
  0
INSERT
  8
1
  2
B25298
 10
193.5
 20
12.4338203435596
 41
-1
  0
INSERT
  8
1
  2
B25305
 10
82.2198102813721
 20
47.3676356178635
  0
INSERT
  8
1
  2
B25306
 10
139.051607131958
 20
23.3676356178635
  0
INSERT
  8
1
  2
B25307
 10
187.549314498901
 20
47.3676406871193
  0
INSERT
  8
1
  2
B25308
 10
75
 20
11.3676406871193
 41
-1
  0
INSERT
  8
1
  2
B25312
 10
72.7884340286255
 20
19.404618216645
  0
INSERT
  8
1
  2
TRICON
 10
105
 20
9.86764068711929
  0
INSERT
  8
1
  2
B25315
 10
116.24995
 20
78.8676406871193
  0
INSERT
  8
1
  2
TRICON
 10
133.49995
 20
78.8676406871193
  0
POLYLINE
  8
1
 66
1
  0
VERTEX
  8
1
 10
133.49995
 20
84.8676406871193
  0
VERTEX
  8
1
 10
133.49995
 20
78.8676406871193
  0
SEQEND
  8
1
  0
POLYLINE
  8
1
 66
1
  0
VERTEX
  8
1
 10
105
 20
54.8676406871193
  0
VERTEX
  8
1
 10
105
 20
66.8676457563751
  0
VERTEX
  8
1
 10
124.499975
 20
66.8676457563751
  0
SEQEND
  8
1
  0
POLYLINE
  8
1
 66
1
  0
VERTEX
  8
1
 10
105
 20
42.8676406871193
  0
VERTEX
  8
1
 10
105
 20
9.86764068711929
  0
SEQEND
  8
1
  0
POLYLINE
  8
1
 66
1
  0
VERTEX
  8
1
 10
162
 20
18.8676356178635
  0
VERTEX
  8
1
 10
162
 20
9.86764068711928
  0
SEQEND
  8
1
  0
POLYLINE
  8
1
 66
1
  0
VERTEX
  8
1
 10
165
 20
42.8676406871193
  0
VERTEX
  8
1
 10
165
 20
38.3676406871193
  0
SEQEND
  8
1
  0
POLYLINE
  8
1
 66
1
  0
VERTEX
  8
1
 10
162
 20
42.8676406871193
  0
VERTEX
  8
1
 10
162
 20
30.8676356178635
  0
SEQEND
  8
1
  0
POLYLINE
  8
1
 66
1
  0
VERTEX
  8
1
 10
162
 20
54.8676406871193
  0
VERTEX
  8
1
 10
162
 20
66.8676406871193
  0
VERTEX
  8
1
 10
142.499975
 20
66.8676406871193
  0
SEQEND
  8
1
  0
POLYLINE
  8
1
 66
1
  0
VERTEX
  8
1
 10
162
 20
9.86764068711929
  0
VERTEX
  8
1
 10
175.5
 20
9.86764068711929
  0
SEQEND
  8
1
  0
POLYLINE
  8
1
 66
1
  0
VERTEX
  8
1
 10
220.5
 20
26.3676406871193
  0
VERTEX
  8
1
 10
220.5
 20
9.86766103067895
  0
VERTEX
  8
1
 10
211.5
 20
9.86766103067895
  0
SEQEND
  8
1
  0
POLYLINE
  8
1
 66
1
  0
VERTEX
  8
1
 10
79.5
 20
9.86764068711929
  0
VERTEX
  8
1
 10
105
 20
9.86764068711929
  0
SEQEND
  8
1
  0
POLYLINE
  8
1
 66
1
  0
VERTEX
  8
1
 10
105
 20
9.86764068711929
  0
VERTEX
  8
1
 10
162
 20
9.86764068711929
  0
SEQEND
  8
1
  0
POLYLINE
  8
1
 66
1
  0
VERTEX
  8
1
 10
119.99995
 20
78.8676406871193
  0
VERTEX
  8
1
 10
133.49995
 20
78.8676406871193
  0
SEQEND
  8
1
  0
POLYLINE
  8
1
 66
1
  0
VERTEX
  8
1
 10
133.49995
 20
78.8676406871193
  0
VERTEX
  8
1
 10
133.49995
 20
72.8676406871193
  0
SEQEND
  8
1
  0
ENDSEC
  0
EOF
