  0
SECTION
  2
HEADER
  9
$LIMMIN
 10
0
 20
0
  9
$LIMMAX
 10
52.5
 20
74.25
  9
$EXTMIN
 10
0
 20
185.003865579986
  9
$EXTMAX
 10
0
 20
90.9949101833343
  0
ENDSEC
  0
SECTION
  2
TABLES
  0
TABLE
  2
LTYPE
 70
9
  0
LTYPE
  2
CONTINUOUS
 70
64
  3
Solid line
 72
65
 73
0
 40
0
  0
LTYPE
  2
DASHED
 70
64
  3
__ __ __ __ __ __ __ __ __
 72
65
 73
2
 40
0.75
 49
0.5
 49
-0.25
  0
LTYPE
  2
DOT
 70
64
  3
...........................
 72
65
 73
2
 40
0.25
 49
0
 49
-0.25
  0
LTYPE
  2
DASHDOT
 70
64
  3
__ . __ . __ . __ . __ . __ . 
 72
65
 73
4
 40
1
 49
0.5
 49
-0.25
 49
0
 49
-0.25
  0
ENDTAB
  0
TABLE
  2
LAYER
 70
10
  0
LAYER
  2
1
 70
0
 62
7
  6
CONTINUOUS
  0
LAYER
  2
CONNECTIONS
 70
0
 62
-7
  6
CONTINUOUS
  0
ENDTAB
  0
ENDSEC
  0
SECTION
  2
BLOCKS
  0
BLOCK
  8
0
  2
TRICON
 70
0
 10
0
 20
0
  0
POLYLINE
  8
1
 70
1
 66
1
 40
0.5
 41
0.5
  0
VERTEX
  8
1
 10
-0.25
 20
0
 42
1
  0
VERTEX
  8
1
 10
0.25
 20
0
 42
1
  0
SEQEND
  8
1
  0
ENDBLK
  8
0
  0
BLOCK
  8
0
  2
TRICONSMALL
 70
0
 10
0
 20
0
  0
POLYLINE
  8
1
 70
1
 66
1
 40
0.25
 41
0.25
  0
VERTEX
  8
1
 10
-0.125
 20
0
 42
1
  0
VERTEX
  8
1
 10
0.125
 20
0
 42
1
  0
SEQEND
  8
1
  0
ENDBLK
  8
0
  0
BLOCK
  8
0
  2
TRICONCIRCLE
 70
0
 10
0
 20
0
  0
CIRCLE
  8
1
 10
0
 20
0
 40
0.5
  0
ENDBLK
  8
0
  0
BLOCK
  8
0
  2
LCBP0
 70
0
 10
0
 20
0
  0
LINE
  8
1
 10
0
 20
-0.46875
 11
0
 21
0.46875
  0
ENDBLK
  8
0
  0
BLOCK
  8
0
  2
LCBP1
 70
0
 10
0
 20
0
  0
LINE
  8
1
 10
0
 20
-0.625
 11
0
 21
0.625
  0
ENDBLK
  8
0
  0
BLOCK
  8
0
  2
LCBP2
 70
0
 10
0
 20
0
  0
LINE
  8
1
 10
0
 20
-0.9375
 11
0
 21
0.9375
  0
ENDBLK
  8
0
  0
BLOCK
  8
0
  2
LCA1
 70
0
 10
0
 20
0
  0
SOLID
  8
1
 62
7 
 10
0
 20
0
 11
-1.4
 21
-0.275
 12
-1.4
 22
0.275
 13
-1.4
 23
0.275
  0
ENDBLK
  8
0
  0
BLOCK
  8
0
  2
LCA2
 70
0
 10
0
 20
0
  0
SOLID
  8
1
 62
7 
 10
0
 20
0
 11
-1.65
 21
-0.525
 12
-1.65
 22
0.525
 13
-1.65
 23
0.525
  0
ENDBLK
  8
0
  0
BLOCK
  8
0
  2
LCA3
 70
0
 10
0
 20
0
  0
SOLID
  8
1
 62
7 
 10
0
 20
0
 11
-2.15
 21
-1.15
 12
-2.15
 22
1.15
 13
-2.15
 23
1.15
  0
ENDBLK
  8
0
  0
BLOCK
  8
0
  2
LCA1R
 70
0
 10
0
 20
0
  0
SOLID
  8
1
 62
7 
 10
0
 20
0
 11
1.4
 21
-0.275
 12
1.4
 22
0.275
 13
1.4
 23
0.275
  0
ENDBLK
  8
0
  0
BLOCK
  8
0
  2
LCA2R
 70
0
 10
0
 20
0
  0
SOLID
  8
1
 62
7 
 10
0
 20
0
 11
1.65
 21
-0.525
 12
1.65
 22
0.525
 13
1.65
 23
0.525
  0
ENDBLK
  8
0
  0
BLOCK
  8
0
  2
LCA3R
 70
0
 10
0
 20
0
  0
SOLID
  8
1
 62
7 
 10
0
 20
0
 11
2.15
 21
-1.15
 12
2.15
 22
1.15
 13
2.15
 23
1.15
  0
ENDBLK
  8
0
  0
BLOCK
  8
0
  2
B25436
 70
0
 10
0
 20
0
  0
CIRCLE
  8
1
 10
-0.7501220703125
 20
0
 40
0.75
  0
LINE
  8
1
 10
-0.0001220703125
 20
0
 11
2.2498779296875
 21
0
  0
CIRCLE
  8
CONNECTIONS
 10
2.2498779296875
 20
0
 40
0
  0
ENDBLK
  8
0
  0
BLOCK
  8
0
  2
B25440
 70
0
 10
0
 20
0
  0
TEXT
  8
1
 40
2.25
 41
0.75
  1
 24 V
  7
STANDARD
 73
3
 10
-4.75367641448975
 20
1.59407520294189
 11
-4.75367641448975
 21
1.59407520294189
  0
ENDBLK
  8
0
  0
BLOCK
  8
0
  2
B25441
 70
0
 10
0
 20
0
  0
CIRCLE
  8
1
 10
-0.7501220703125
 20
0
 40
0.75
  0
LINE
  8
1
 10
-0.0001220703125
 20
0
 11
2.2498779296875
 21
0
  0
CIRCLE
  8
CONNECTIONS
 10
2.2498779296875
 20
0
 40
0
  0
ENDBLK
  8
0
  0
BLOCK
  8
0
  2
B25445
 70
0
 10
0
 20
0
  0
TEXT
  8
1
 40
2.25
 41
0.75
  1
 0 V
  7
STANDARD
 73
3
 10
-3.75931286811829
 20
1.59407520294189
 11
-3.75931286811829
 21
1.59407520294189
  0
ENDBLK
  8
0
  0
BLOCK
  8
0
  2
B25446
 70
0
 10
0
 20
0
  0
LINE
  8
1
 10
-1.875
 20
-4.5
 11
-1.875
 21
-1.5
  0
LINE
  8
1
 10
-1.875
 20
4.5
 11
-1.875
 21
1.5
  0
LINE
  8
1
  6
DASHED
 10
1.125
 20
0
 11
4.125
 21
0
  0
LINE
  8
1
 10
4.125
 20
-1.5
 11
4.125
 21
-3
  0
LINE
  8
1
 10
4.125
 20
1.5
 11
4.125
 21
3
  0
POLYLINE
  8
1
 66
1
  0
VERTEX
  8
1
 10
3.375
 20
1.5
  0
VERTEX
  8
1
 10
4.875
 20
1.5
  0
VERTEX
  8
1
 10
3.375
 20
-1.5
  0
VERTEX
  8
1
 10
4.875
 20
-1.5
  0
VERTEX
  8
1
 10
3.375
 20
1.5
  0
SEQEND
  8
1
  0
LINE
  8
1
 10
-3.375
 20
-1.5
 11
-0.375
 21
1.5
  0
POLYLINE
  8
1
 66
1
  0
VERTEX
  8
1
 10
-4.875
 20
1.5
  0
VERTEX
  8
1
 10
1.125
 20
1.5
  0
VERTEX
  8
1
 10
1.125
 20
-1.5
  0
VERTEX
  8
1
 10
-4.875
 20
-1.5
  0
VERTEX
  8
1
 10
-4.875
 20
1.5
  0
SEQEND
  8
1
  0
CIRCLE
  8
CONNECTIONS
 10
-1.875
 20
4.5
 40
0
  0
CIRCLE
  8
CONNECTIONS
 10
-1.875
 20
-4.5
 40
0
  0
CIRCLE
  8
CONNECTIONS
 10
4.125
 20
0
 40
0
  0
ENDBLK
  8
0
  0
BLOCK
  8
0
  2
B25449
 70
0
 10
0
 20
0
  0
LINE
  8
1
 10
0
 20
-1.5
 11
0
 21
-4.5
  0
LINE
  8
1
 10
0
 20
1.5
 11
0
 21
4.5
  0
POLYLINE
  8
1
 66
1
  0
VERTEX
  8
1
 10
-3
 20
1.5
  0
VERTEX
  8
1
 10
3
 20
1.5
  0
VERTEX
  8
1
 10
3
 20
-1.5
  0
VERTEX
  8
1
 10
-3
 20
-1.5
  0
VERTEX
  8
1
 10
-3
 20
1.5
  0
SEQEND
  8
1
  0
CIRCLE
  8
CONNECTIONS
 10
0
 20
4.5
 40
0
  0
CIRCLE
  8
CONNECTIONS
 10
0
 20
-4.5
 40
0
  0
CIRCLE
  8
CONNECTIONS
 10
0
 20
0
 40
0
  0
ENDBLK
  8
0
  0
BLOCK
  8
0
  2
B25452
 70
0
 10
0
 20
0
  0
TEXT
  8
1
 40
1.51875
 41
0.75
  1
A2
  7
STANDARD
 73
2
 10
-1.81999158859253
 20
0
 11
-1.81999158859253
 21
0
  0
ENDBLK
  8
0
  0
BLOCK
  8
0
  2
B25453
 70
0
 10
0
 20
0
  0
TEXT
  8
1
 40
1.51875
 41
0.75
  1
A1
  7
STANDARD
 73
2
 10
-1.81999158859253
 20
0
 11
-1.81999158859253
 21
0
  0
ENDBLK
  8
0
  0
BLOCK
  8
0
  2
B25454
 70
0
 10
0
 20
0
  0
LINE
  8
1
 10
-1.875
 20
-4.5
 11
-1.875
 21
-1.5
  0
LINE
  8
1
 10
-1.875
 20
4.5
 11
-1.875
 21
1.5
  0
LINE
  8
1
  6
DASHED
 10
1.125
 20
0
 11
4.125
 21
0
  0
LINE
  8
1
 10
4.125
 20
-1.5
 11
4.125
 21
-3
  0
LINE
  8
1
 10
4.125
 20
1.5
 11
4.125
 21
3
  0
POLYLINE
  8
1
 66
1
  0
VERTEX
  8
1
 10
3.375
 20
1.5
  0
VERTEX
  8
1
 10
4.875
 20
1.5
  0
VERTEX
  8
1
 10
3.375
 20
-1.5
  0
VERTEX
  8
1
 10
4.875
 20
-1.5
  0
VERTEX
  8
1
 10
3.375
 20
1.5
  0
SEQEND
  8
1
  0
LINE
  8
1
 10
-3.375
 20
-1.5
 11
-0.375
 21
1.5
  0
POLYLINE
  8
1
 66
1
  0
VERTEX
  8
1
 10
-4.875
 20
1.5
  0
VERTEX
  8
1
 10
1.125
 20
1.5
  0
VERTEX
  8
1
 10
1.125
 20
-1.5
  0
VERTEX
  8
1
 10
-4.875
 20
-1.5
  0
VERTEX
  8
1
 10
-4.875
 20
1.5
  0
SEQEND
  8
1
  0
CIRCLE
  8
CONNECTIONS
 10
-1.875
 20
4.5
 40
0
  0
CIRCLE
  8
CONNECTIONS
 10
-1.875
 20
-4.5
 40
0
  0
CIRCLE
  8
CONNECTIONS
 10
4.125
 20
0
 40
0
  0
ENDBLK
  8
0
  0
BLOCK
  8
0
  2
B25457
 70
0
 10
0
 20
0
  0
LINE
  8
1
 10
0
 20
-1.5
 11
0
 21
-4.5
  0
LINE
  8
1
 10
0
 20
1.5
 11
0
 21
4.5
  0
POLYLINE
  8
1
 66
1
  0
VERTEX
  8
1
 10
-3
 20
1.5
  0
VERTEX
  8
1
 10
3
 20
1.5
  0
VERTEX
  8
1
 10
3
 20
-1.5
  0
VERTEX
  8
1
 10
-3
 20
-1.5
  0
VERTEX
  8
1
 10
-3
 20
1.5
  0
SEQEND
  8
1
  0
CIRCLE
  8
CONNECTIONS
 10
0
 20
4.5
 40
0
  0
CIRCLE
  8
CONNECTIONS
 10
0
 20
-4.5
 40
0
  0
CIRCLE
  8
CONNECTIONS
 10
0
 20
0
 40
0
  0
ENDBLK
  8
0
  0
BLOCK
  8
0
  2
B25460
 70
0
 10
0
 20
0
  0
TEXT
  8
1
 40
1.51875
 41
0.75
  1
A2
  7
STANDARD
 73
2
 10
-1.81999158859253
 20
0
 11
-1.81999158859253
 21
0
  0
ENDBLK
  8
0
  0
BLOCK
  8
0
  2
B25461
 70
0
 10
0
 20
0
  0
TEXT
  8
1
 40
1.51875
 41
0.75
  1
A1
  7
STANDARD
 73
2
 10
-1.81999158859253
 20
0
 11
-1.81999158859253
 21
0
  0
ENDBLK
  8
0
  0
BLOCK
  8
0
  2
B25462
 70
0
 10
0
 20
0
  0
LINE
  8
1
 10
-1.125
 20
-4.5
 11
-1.125
 21
-1.5
  0
LINE
  8
1
 10
-1.125
 20
4.5
 11
-1.125
 21
1.5
  0
LINE
  8
1
 10
-1.125
 20
1.5
 11
1.125
 21
1.5
  0
CIRCLE
  8
CONNECTIONS
 10
-1.125
 20
4.5
 40
0
  0
CIRCLE
  8
CONNECTIONS
 10
-1.125
 20
-4.5
 40
0
  0
CIRCLE
  8
CONNECTIONS
 10
-0.0290888284390292
 20
0.378723956319249
 40
0
  0
LINE
  8
1
 10
-1.125
 20
-1.5
 11
0.75
 21
2.0625
  0
ENDBLK
  8
0
  0
BLOCK
  8
0
  2
B25465
 70
0
 10
0
 20
0
  0
TEXT
  8
1
 40
1.51875
 41
0.75
  1
11
  7
STANDARD
 73
2
 10
-1.69181776046753
 20
0
 11
-1.69181776046753
 21
0
  0
ENDBLK
  8
0
  0
BLOCK
  8
0
  2
B25466
 70
0
 10
0
 20
0
  0
TEXT
  8
1
 40
1.51875
 41
0.75
  1
12
  7
STANDARD
 73
2
 10
-1.69181776046753
 20
0
 11
-1.69181776046753
 21
0
  0
ENDBLK
  8
0
  0
BLOCK
  8
0
  2
B25467
 70
0
 10
0
 20
0
  0
LINE
  8
1
 10
1.05
 20
-1.5
 11
1.05
 21
-4.5
  0
LINE
  8
1
 10
1.05
 20
4.5
 11
1.05
 21
1.5
  0
CIRCLE
  8
CONNECTIONS
 10
1.05
 20
4.5
 40
0
  0
CIRCLE
  8
CONNECTIONS
 10
1.05
 20
-4.5
 40
0
  0
CIRCLE
  8
CONNECTIONS
 10
0.1125
 20
0.375
 40
0
  0
LINE
  8
1
 10
1.05
 20
-1.5
 11
-1.05
 21
2.1
  0
ENDBLK
  8
0
  0
BLOCK
  8
0
  2
B25470
 70
0
 10
0
 20
0
  0
TEXT
  8
1
 40
1.51875
 41
0.75
  1
23
  7
STANDARD
 73
2
 10
-1.69181776046753
 20
0
 11
-1.69181776046753
 21
0
  0
ENDBLK
  8
0
  0
BLOCK
  8
0
  2
B25471
 70
0
 10
0
 20
0
  0
TEXT
  8
1
 40
1.51875
 41
0.75
  1
24
  7
STANDARD
 73
2
 10
-1.69181776046753
 20
0
 11
-1.69181776046753
 21
0
  0
ENDBLK
  8
0
  0
BLOCK
  8
0
  2
B25472
 70
0
 10
0
 20
0
  0
CIRCLE
  8
CONNECTIONS
 10
0
 20
0
 40
0
  0
CIRCLE
  8
CONNECTIONS
 10
0
 20
0
 40
0
  0
CIRCLE
  8
CONNECTIONS
 10
0
 20
0
 40
0
  0
CIRCLE
  8
CONNECTIONS
 10
0
 20
0
 40
0
  0
ENDBLK
  8
0
  0
BLOCK
  8
0
  2
B25474
 70
0
 10
0
 20
0
  0
LINE
  8
1
 10
2.03235686388271
 20
-1.4962234433919
 11
2.03235686388271
 21
-4.5
  0
LINE
  8
1
 10
2.03235686388271
 20
4.5
 11
2.03235686388271
 21
1.5037765566081
  0
CIRCLE
  8
CONNECTIONS
 10
2.03235686388271
 20
4.5037765566081
 40
0
  0
CIRCLE
  8
CONNECTIONS
 10
2.03235686388271
 20
-4.4962234433919
 40
0
  0
CIRCLE
  8
CONNECTIONS
 10
1.09485686388271
 20
0.378776556608102
 40
0
  0
LINE
  8
1
  6
DOT
 10
-2.03235686388271
 20
0.00377655660810206
 11
1.15514313611729
 21
0.00377655660810206
  0
POLYLINE
  8
1
 66
1
  0
VERTEX
  8
1
 10
-1.09485686388271
 20
0.753776556608102
  0
VERTEX
  8
1
 10
-2.03235686388271
 20
0.753776556608102
  0
VERTEX
  8
1
 10
-2.03235686388271
 20
-0.746223443391898
  0
VERTEX
  8
1
 10
-1.09485686388271
 20
-0.746223443391898
  0
SEQEND
  8
1
  0
LINE
  8
1
 10
2.03235686388271
 20
-1.5
 11
-0.0676431361172889
 21
2.1
  0
ENDBLK
  8
0
  0
BLOCK
  8
0
  2
B25477
 70
0
 10
0
 20
0
  0
TEXT
  8
1
 40
1.51875
 41
0.75
  1
3
  7
STANDARD
 73
2
 10
-1.04122138023376
 20
0
 11
-1.04122138023376
 21
0
  0
ENDBLK
  8
0
  0
BLOCK
  8
0
  2
B25478
 70
0
 10
0
 20
0
  0
TEXT
  8
1
 40
1.51875
 41
0.75
  1
4
  7
STANDARD
 73
2
 10
-1.04122138023376
 20
0
 11
-1.04122138023376
 21
0
  0
ENDBLK
  8
0
  0
BLOCK
  8
0
  2
B25479
 70
0
 10
0
 20
0
  0
LINE
  8
1
 10
2.80208687161857
 20
-1.4962234433919
 11
2.80208687161857
 21
-4.5
  0
LINE
  8
1
 10
2.80208687161857
 20
4.5
 11
2.80208687161857
 21
1.5037765566081
  0
CIRCLE
  8
CONNECTIONS
 10
2.80208687161857
 20
4.5075531132162
 40
0
  0
CIRCLE
  8
CONNECTIONS
 10
2.80208687161857
 20
-4.4962234433919
 40
0
  0
CIRCLE
  8
CONNECTIONS
 10
1.86458687161857
 20
0.378776556608102
 40
0
  0
LINE
  8
1
  6
DOT
 10
1.92487484168407
 20
0.00377655660810916
 11
0.19791312838143
 21
0.00377655660810916
  0
LINE
  8
1
  6
DOT
 10
-1.11458687161857
 20
0.00379930133300377
 11
-2.80208687161857
 21
0.00379930133300377
  0
POLYLINE
  8
1
 66
1
  0
VERTEX
  8
1
 10
-2.05208687161855
 20
0.753799301333004
  0
VERTEX
  8
1
 10
-2.80208687161855
 20
0.753799301333004
  0
VERTEX
  8
1
 10
-2.80208687161855
 20
-0.746200698666996
  0
VERTEX
  8
1
 10
-2.05208687161855
 20
-0.746200698666996
  0
SEQEND
  8
1
  0
POLYLINE
  8
1
 66
1
  0
VERTEX
  8
1
 10
-1.11458687161855
 20
0.00379930133300377
  0
VERTEX
  8
1
 10
-0.458336871618555
 20
-1.308700698667
  0
VERTEX
  8
1
 10
0.197913128381445
 20
0.00379930133300377
  0
SEQEND
  8
1
  0
LINE
  8
1
 10
2.80208687161857
 20
-1.5
 11
0.70208687161857
 21
2.1
  0
ENDBLK
  8
0
  0
BLOCK
  8
0
  2
B25482
 70
0
 10
0
 20
0
  0
TEXT
  8
1
 40
1.51875
 41
0.75
  1
3
  7
STANDARD
 73
2
 10
-1.04122138023376
 20
0
 11
-1.04122138023376
 21
0
  0
ENDBLK
  8
0
  0
BLOCK
  8
0
  2
B25483
 70
0
 10
0
 20
0
  0
TEXT
  8
1
 40
1.51875
 41
0.75
  1
4
  7
STANDARD
 73
2
 10
-1.04122138023376
 20
0
 11
-1.04122138023376
 21
0
  0
ENDBLK
  8
0
  0
BLOCK
  8
0
  2
B25484
 70
0
 10
0
 20
0
  0
CIRCLE
  8
CONNECTIONS
 10
0
 20
0
 40
0
  0
CIRCLE
  8
CONNECTIONS
 10
0
 20
0
 40
0
  0
CIRCLE
  8
CONNECTIONS
 10
0
 20
0
 40
0
  0
CIRCLE
  8
CONNECTIONS
 10
0
 20
0
 40
0
  0
ENDBLK
  8
0
  0
BLOCK
  8
0
  2
B25486
 70
0
 10
0
 20
0
  0
CIRCLE
  8
CONNECTIONS
 10
0
 20
0
 40
0
  0
CIRCLE
  8
CONNECTIONS
 10
0
 20
0
 40
0
  0
CIRCLE
  8
CONNECTIONS
 10
0
 20
0
 40
0
  0
CIRCLE
  8
CONNECTIONS
 10
0
 20
0
 40
0
  0
ENDBLK
  8
0
  0
BLOCK
  8
0
  2
B25488
 70
0
 10
0
 20
0
  0
CIRCLE
  8
CONNECTIONS
 10
0
 20
0
 40
0
  0
CIRCLE
  8
CONNECTIONS
 10
0
 20
0
 40
0
  0
CIRCLE
  8
CONNECTIONS
 10
0
 20
0
 40
0
  0
CIRCLE
  8
CONNECTIONS
 10
0
 20
0
 40
0
  0
ENDBLK
  8
0
  0
BLOCK
  8
0
  2
B25490
 70
0
 10
0
 20
0
  0
TEXT
  8
1
 40
2.19375
 41
0.75
  1
EBS
  7
STANDARD
 72
2
 73
2
 10
3.3719162940979
 20
0
 11
3.3719162940979
 21
0
  0
ENDBLK
  8
0
  0
BLOCK
  8
0
  2
B25491
 70
0
 10
0
 20
0
  0
TEXT
  8
1
 40
2.19375
 41
0.75
  1
EBS
  7
STANDARD
 72
2
 73
2
 10
3.3719162940979
 20
0
 11
3.3719162940979
 21
0
  0
ENDBLK
  8
0
  0
BLOCK
  8
0
  2
B25492
 70
0
 10
0
 20
0
  0
TEXT
  8
1
 40
2.19375
 41
0.75
  1
EBS Valve
  7
STANDARD
 72
2
 73
2
 10
7.98801755905151
 20
0
 11
7.98801755905151
 21
0
  0
ENDBLK
  8
0
  0
BLOCK
  8
0
  2
B25493
 70
0
 10
0
 20
0
  0
TEXT
  8
1
 40
2.19375
 41
0.75
  1
ASB Valve
  7
STANDARD
 72
2
 73
2
 10
8.23101329803467
 20
0
 11
8.23101329803467
 21
0
  0
ENDBLK
  8
0
  0
BLOCK
  8
0
  2
B25494
 70
0
 10
0
 20
0
  0
TEXT
  8
1
 40
2.19375
 41
0.75
  1
ASB
  7
STANDARD
 72
2
 73
2
 10
3.61491250991821
 20
0
 11
3.61491250991821
 21
0
  0
ENDBLK
  8
0
  0
BLOCK
  8
0
  2
B25495
 70
0
 10
0
 20
0
  0
TEXT
  8
1
 40
2.19375
 41
0.75
  1
ASB
  7
STANDARD
 72
2
 73
2
 10
3.61491250991821
 20
0
 11
3.61491250991821
 21
0
  0
ENDBLK
  8
0
  0
BLOCK
  8
0
  2
B25496
 70
0
 10
0
 20
0
  0
CIRCLE
  8
CONNECTIONS
 10
0
 20
0
 40
0
  0
CIRCLE
  8
CONNECTIONS
 10
0
 20
0
 40
0
  0
CIRCLE
  8
CONNECTIONS
 10
0
 20
0
 40
0
  0
CIRCLE
  8
CONNECTIONS
 10
0
 20
0
 40
0
  0
ENDBLK
  8
0
  0
BLOCK
  8
0
  2
B25498
 70
0
 10
0
 20
0
  0
CIRCLE
  8
CONNECTIONS
 10
0
 20
0
 40
0
  0
CIRCLE
  8
CONNECTIONS
 10
0
 20
0
 40
0
  0
CIRCLE
  8
CONNECTIONS
 10
0
 20
0
 40
0
  0
CIRCLE
  8
CONNECTIONS
 10
0
 20
0
 40
0
  0
ENDBLK
  8
0
  0
BLOCK
  8
0
  2
B25500
 70
0
 10
0
 20
0
  0
LINE
  8
1
 10
-3.375
 20
1.5
 11
2.625
 21
1.5
  0
LINE
  8
1
 10
-3.375
 20
-1.5
 11
2.625
 21
-1.5
  0
LINE
  8
1
 10
-3.375
 20
1.5
 11
-3.375
 21
-1.5
  0
LINE
  8
1
 10
-6.375
 20
0
 11
-3.375
 21
0
  0
LINE
  8
1
 10
4.875
 20
1.5
 11
6.375
 21
-1.5
  0
LINE
  8
1
 10
6.375
 20
1.5
 11
4.875
 21
-1.5
  0
LINE
  8
1
 10
2.625
 20
1.5
 11
2.625
 21
-1.5
  0
LINE
  8
1
 10
0.375
 20
1.5
 11
1.375
 21
-1.5
  0
LINE
  8
1
 10
-1.125
 20
1.5
 11
-2.125
 21
-1.5
  0
LINE
  8
1
 10
1.125
 20
3.25
 11
-2.375
 21
-2
  0
LINE
  8
1
 10
4.875
 20
-1.5
 11
6.375
 21
-1.5
  0
LINE
  8
1
  6
DASHED
 10
2.625
 20
0
 11
5.625
 21
0
  0
LINE
  8
1
 10
5.625
 20
-1.5
 11
5.625
 21
-3
  0
LINE
  8
1
 10
-0.375
 20
-1.5
 11
-0.375
 21
-4.5
  0
LINE
  8
1
 10
4.875
 20
1.5
 11
6.375
 21
1.5
  0
LINE
  8
1
 10
5.625
 20
3
 11
5.625
 21
1.5
  0
SOLID
  8
1
 10
1.125
 20
3.25
 11
-0.123291015625
 21
2.279541015625
 12
0.70849609375
 22
1.724853515625
 13
0.70849609375
 23
1.724853515625
  0
LINE
  8
1
 10
-0.375
 20
1.5
 11
-0.375
 21
4.5
  0
CIRCLE
  8
CONNECTIONS
 10
-0.375
 20
4.5
 40
0
  0
CIRCLE
  8
CONNECTIONS
 10
-0.375
 20
-4.5
 40
0
  0
CIRCLE
  8
CONNECTIONS
 10
-6.375
 20
0
 40
0
  0
CIRCLE
  8
CONNECTIONS
 10
0
 20
0
 40
0
  0
ENDBLK
  8
0
  0
BLOCK
  8
0
  2
B25503
 70
0
 10
0
 20
0
  0
TEXT
  8
1
 40
2.19375
 41
0.75
  1
ASB Control
  7
STANDARD
 72
2
 73
2
 10
9.82123374938965
 20
0
 11
9.82123374938965
 21
0
  0
ENDBLK
  8
0
  0
BLOCK
  8
0
  2
B25504
 70
0
 10
0
 20
0
  0
CIRCLE
  8
CONNECTIONS
 10
0
 20
0
 40
0
  0
CIRCLE
  8
CONNECTIONS
 10
0
 20
0
 40
0
  0
CIRCLE
  8
CONNECTIONS
 10
0
 20
0
 40
0
  0
CIRCLE
  8
CONNECTIONS
 10
0
 20
0
 40
0
  0
ENDBLK
  8
0
  0
BLOCK
  8
0
  2
B25506
 70
0
 10
0
 20
0
  0
CIRCLE
  8
CONNECTIONS
 10
0
 20
0
 40
0
  0
CIRCLE
  8
CONNECTIONS
 10
0
 20
0
 40
0
  0
CIRCLE
  8
CONNECTIONS
 10
0
 20
0
 40
0
  0
CIRCLE
  8
CONNECTIONS
 10
0
 20
0
 40
0
  0
ENDBLK
  8
0
  0
BLOCK
  8
0
  2
B25508
 70
0
 10
0
 20
0
  0
LINE
  8
1
 10
1.73299512883486
 20
-0.795495128834887
 11
4.73299512883486
 21
-0.795495128834887
  0
LINE
  8
1
 10
-4.73299512883486
 20
0.613514613495397
 11
-1.5510146134954
 21
3.79549512883486
  0
INSERT
  8
1
  2
LCA2
 10
-1.5510146134954
 20
3.79549512883486
 50
45
  0
POLYLINE
  8
1
 66
1
  0
VERTEX
  8
1
 10
-4.26700487116514
 20
2.20450487116511
  0
VERTEX
  8
1
 10
1.73299512883486
 20
2.20450487116511
  0
VERTEX
  8
1
 10
1.73299512883486
 20
-3.79549512883489
  0
VERTEX
  8
1
 10
-4.26700487116514
 20
-3.79549512883489
  0
VERTEX
  8
1
 10
-4.26700487116514
 20
2.20450487116511
  0
SEQEND
  8
1
  0
CIRCLE
  8
CONNECTIONS
 10
4.73299512883486
 20
-0.795495128834887
 40
0
  0
LINE
  8
1
 10
-0.892004871165142
 20
-1.17049512883489
 11
0.232995128834858
 21
-1.17049512883489
  0
LINE
  8
1
 10
-2.76700487116514
 20
-1.17049512883489
 11
-1.64200487116514
 21
-1.17049512883489
  0
LINE
  8
1
 10
-2.76700487116514
 20
-0.420495128834887
 11
0.232995128834858
 21
-0.420495128834887
  0
ENDBLK
  8
0
  0
BLOCK
  8
0
  2
B25512
 70
0
 10
0
 20
0
  0
LINE
  8
1
 10
2.15940264925555
 20
0
 11
3.65942034125328
 21
1.125
  0
LINE
  8
1
 10
3.47190264925555
 20
0
 11
4.78440264925555
 21
0
  0
LINE
  8
1
 10
0.846902649255554
 20
0
 11
2.15940264925555
 21
0
  0
TEXT
  8
1
 40
1.35
 41
0.75
  1
p
  7
STANDARD
 73
2
 10
-8.53442034125328
 20
1.875
 11
-8.53442034125328
 21
1.875
  0
LINE
  8
1
 10
-3.46557965874672
 20
1.875
 11
-6.46557965874672
 21
1.875
  0
POLYLINE
  8
1
 66
1
  0
VERTEX
  8
1
 10
-3.46557965874672
 20
2.625
  0
VERTEX
  8
1
 10
-1.96557965874672
 20
1.875
  0
VERTEX
  8
1
 10
-3.46557965874672
 20
1.125
  0
VERTEX
  8
1
 10
-3.46557965874672
 20
2.625
  0
SEQEND
  8
1
  0
LINE
  8
1
 10
-3.46557965874672
 20
-1.5
 11
2.53442034125328
 21
4.5
  0
LINE
  8
1
 10
1.03442034125328
 20
-4.5
 11
1.03442034125328
 21
-7.5
  0
LINE
  8
1
 10
5.53442034125328
 20
0
 11
8.53442034125328
 21
0
  0
LINE
  8
1
 10
1.03442034125328
 20
4.5
 11
1.03442034125328
 21
7.5
  0
POLYLINE
  8
1
 66
1
  0
VERTEX
  8
1
 10
-3.46557965874672
 20
4.5
  0
VERTEX
  8
1
 10
5.53442034125328
 20
4.5
  0
VERTEX
  8
1
 10
5.53442034125328
 20
-4.5
  0
VERTEX
  8
1
 10
-3.46557965874672
 20
-4.5
  0
VERTEX
  8
1
 10
-3.46557965874672
 20
4.5
  0
SEQEND
  8
1
  0
CIRCLE
  8
CONNECTIONS
 10
1.03442034125328
 20
7.5
 40
0
  0
CIRCLE
  8
CONNECTIONS
 10
1.03442034125328
 20
-7.5
 40
0
  0
CIRCLE
  8
CONNECTIONS
 10
8.53442034125328
 20
0
 40
0
  0
CIRCLE
  8
CONNECTIONS
 10
1.03442034125328
 20
0
 40
0
  0
ENDBLK
  8
0
  0
BLOCK
  8
0
  2
B25515
 70
0
 10
0
 20
0
  0
TEXT
  8
1
 40
1.51875
 41
0.75
  1
4
  7
STANDARD
 73
2
 10
-1.04122138023376
 20
0
 11
-1.04122138023376
 21
0
  0
ENDBLK
  8
0
  0
BLOCK
  8
0
  2
B25516
 70
0
 10
0
 20
0
  0
TEXT
  8
1
 40
1.51875
 41
0.75
  1
1
  7
STANDARD
 73
2
 10
-1.04122138023376
 20
0
 11
-1.04122138023376
 21
0
  0
ENDBLK
  8
0
  0
BLOCK
  8
0
  2
B25517
 70
0
 10
0
 20
0
  0
TEXT
  8
1
 40
1.51875
 41
0.75
  1
3
  7
STANDARD
 73
2
 10
-1.04122138023376
 20
0
 11
-1.04122138023376
 21
0
  0
ENDBLK
  8
0
  0
BLOCK
  8
0
  2
B25518
 70
0
 10
0
 20
0
  0
LINE
  8
1
 10
0
 20
-1.5
 11
0
 21
-4.5
  0
LINE
  8
1
 10
0
 20
1.5
 11
0
 21
4.5
  0
POLYLINE
  8
1
 66
1
  0
VERTEX
  8
1
 10
-3
 20
1.5
  0
VERTEX
  8
1
 10
3
 20
1.5
  0
VERTEX
  8
1
 10
3
 20
-1.5
  0
VERTEX
  8
1
 10
-3
 20
-1.5
  0
VERTEX
  8
1
 10
-3
 20
1.5
  0
SEQEND
  8
1
  0
CIRCLE
  8
CONNECTIONS
 10
0
 20
4.5
 40
0
  0
CIRCLE
  8
CONNECTIONS
 10
0
 20
-4.5
 40
0
  0
CIRCLE
  8
CONNECTIONS
 10
0
 20
0
 40
0
  0
ENDBLK
  8
0
  0
BLOCK
  8
0
  2
B25521
 70
0
 10
0
 20
0
  0
TEXT
  8
1
 40
1.51875
 41
0.75
  1
A2
  7
STANDARD
 73
2
 10
-1.81999158859253
 20
0
 11
-1.81999158859253
 21
0
  0
ENDBLK
  8
0
  0
BLOCK
  8
0
  2
B25522
 70
0
 10
0
 20
0
  0
TEXT
  8
1
 40
1.51875
 41
0.75
  1
A1
  7
STANDARD
 73
2
 10
-1.81999158859253
 20
0
 11
-1.81999158859253
 21
0
  0
ENDBLK
  8
0
  0
BLOCK
  8
0
  2
B25523
 70
0
 10
0
 20
0
  0
TEXT
  8
1
 40
2.19375
 41
0.75
  1
Pressure
  7
STANDARD
 72
2
 73
2
 10
7.04165458679199
 20
0
 11
7.04165458679199
 21
0
  0
ENDBLK
  8
0
  0
BLOCK
  8
0
  2
B25524
 70
0
 10
0
 20
0
  0
CIRCLE
  8
CONNECTIONS
 10
0
 20
0
 40
0
  0
CIRCLE
  8
CONNECTIONS
 10
0
 20
0
 40
0
  0
CIRCLE
  8
CONNECTIONS
 10
0
 20
0
 40
0
  0
CIRCLE
  8
CONNECTIONS
 10
0
 20
0
 40
0
  0
ENDBLK
  8
0
  0
BLOCK
  8
0
  2
B25526
 70
0
 10
0
 20
0
  0
CIRCLE
  8
CONNECTIONS
 10
0
 20
0
 40
0
  0
CIRCLE
  8
CONNECTIONS
 10
0
 20
0
 40
0
  0
CIRCLE
  8
CONNECTIONS
 10
0
 20
0
 40
0
  0
CIRCLE
  8
CONNECTIONS
 10
0
 20
0
 40
0
  0
ENDBLK
  8
0
  0
BLOCK
  8
0
  2
B25528
 70
0
 10
0
 20
0
  0
CIRCLE
  8
CONNECTIONS
 10
0
 20
0
 40
0
  0
CIRCLE
  8
CONNECTIONS
 10
0
 20
0
 40
0
  0
CIRCLE
  8
CONNECTIONS
 10
0
 20
0
 40
0
  0
CIRCLE
  8
CONNECTIONS
 10
0
 20
0
 40
0
  0
ENDBLK
  8
0
  0
BLOCK
  8
0
  2
B25530
 70
0
 10
0
 20
0
  0
LINE
  8
1
 10
1.05
 20
-1.5
 11
1.05
 21
-4.5
  0
LINE
  8
1
 10
1.05
 20
4.5
 11
1.05
 21
1.5
  0
CIRCLE
  8
CONNECTIONS
 10
1.05
 20
4.5
 40
0
  0
CIRCLE
  8
CONNECTIONS
 10
1.05
 20
-4.5
 40
0
  0
CIRCLE
  8
CONNECTIONS
 10
0.1125
 20
0.375
 40
0
  0
LINE
  8
1
 10
1.05
 20
-1.5
 11
-1.05
 21
2.1
  0
ENDBLK
  8
0
  0
BLOCK
  8
0
  2
B25533
 70
0
 10
0
 20
0
  0
TEXT
  8
1
 40
1.51875
 41
0.75
  1
33
  7
STANDARD
 73
2
 10
-1.69181776046753
 20
0
 11
-1.69181776046753
 21
0
  0
ENDBLK
  8
0
  0
BLOCK
  8
0
  2
B25534
 70
0
 10
0
 20
0
  0
TEXT
  8
1
 40
1.51875
 41
0.75
  1
34
  7
STANDARD
 73
2
 10
-1.69181776046753
 20
0
 11
-1.69181776046753
 21
0
  0
ENDBLK
  8
0
  0
BLOCK
  8
0
  2
B25535
 70
0
 10
0
 20
0
  0
TEXT
  8
1
 40
2.19375
 41
0.75
  1
Pressure
  7
STANDARD
 72
2
 73
2
 10
7.04165458679199
 20
0
 11
7.04165458679199
 21
0
  0
ENDBLK
  8
0
  0
BLOCK
  8
0
  2
B25536
 70
0
 10
0
 20
0
  0
TEXT
  8
1
 40
2.19375
 41
0.75
  1
Pressure Sensor
  7
STANDARD
 72
2
 73
2
 10
12.7115659713745
 20
0
 11
12.7115659713745
 21
0
  0
ENDBLK
  8
0
  0
BLOCK
  8
0
  2
B25537
 70
0
 10
0
 20
0
  0
LINE
  8
1
 10
1.40625152059121
 20
-4.5
 11
1.40625152059121
 21
-1.5
  0
LINE
  8
1
 10
1.40625152059121
 20
4.5
 11
1.40625152059121
 21
1.5
  0
CIRCLE
  8
1
 10
-0.843748479408788
 20
2.25
 40
1.5
  0
LINE
  8
1
 10
0.281251520591212
 20
2.25
 11
-0.468748479408788
 21
1.5
  0
LINE
  8
1
 10
0.281251520591212
 20
2.25
 11
-0.468748479408788
 21
3
  0
LINE
  8
1
 10
-1.96874847940879
 20
2.25
 11
0.281251520591212
 21
2.25
  0
LINE
  8
1
 10
1.40625152059121
 20
1.5
 11
3.65625152059121
 21
1.5
  0
CIRCLE
  8
CONNECTIONS
 10
1.40625152059121
 20
4.5
 40
0
  0
CIRCLE
  8
CONNECTIONS
 10
1.40625152059121
 20
-4.5
 40
0
  0
CIRCLE
  8
CONNECTIONS
 10
2.50216269215218
 20
0.378723956319249
 40
0
  0
LINE
  8
1
  6
DOT
 10
-0.843751520591212
 20
-1.98894524032767E-05
 11
-2.90625152059121
 21
-1.98894524032767E-05
  0
POLYLINE
  8
1
 66
1
  0
VERTEX
  8
1
 10
-0.843751520591213
 20
-1.98894524032767E-05
  0
VERTEX
  8
1
 10
-0.187501520591213
 20
-1.3125198894524
  0
VERTEX
  8
1
 10
0.468748479408787
 20
-1.98894524032767E-05
  0
SEQEND
  8
1
  0
ARC
  8
1
 10
-2.90625152059121
 20
-1.98894524032767E-05
 40
0.75
 50
90
 51
270
  0
LINE
  8
1
 10
-2.90625152059121
 20
0.749980110547597
 11
-2.90625152059121
 21
-0.750019889452403
  0
LINE
  8
1
  6
DOT
 10
2.19571019271143
 20
-4.26341772978844E-05
 11
0.468748479408788
 21
-4.26341772978844E-05
  0
LINE
  8
1
 10
1.40625152059121
 20
-1.5
 11
3.28125152059121
 21
2.0625
  0
ENDBLK
  8
0
  0
BLOCK
  8
0
  2
B25540
 70
0
 10
0
 20
0
  0
TEXT
  8
1
 40
1.51875
 41
0.75
  1
2
  7
STANDARD
 73
2
 10
-1.04122138023376
 20
0
 11
-1.04122138023376
 21
0
  0
ENDBLK
  8
0
  0
BLOCK
  8
0
  2
B25541
 70
0
 10
0
 20
0
  0
TEXT
  8
1
 40
1.51875
 41
0.75
  1
1
  7
STANDARD
 73
2
 10
-1.04122138023376
 20
0
 11
-1.04122138023376
 21
0
  0
ENDBLK
  8
0
  0
ENDSEC
  0
SECTION
  2
ENTITIES
  0
INSERT
  8
1
  2
B25436
 10
65.2501220703125
 20
81.5631504058838
  0
INSERT
  8
1
  2
B25440
 10
58.7398514144897
 20
81.7197252029419
  0
INSERT
  8
1
  2
B25441
 10
65.2501095703125
 20
3.56315040588379
  0
INSERT
  8
1
  2
B25445
 10
59.3843003681183
 20
3.65657520294189
  0
INSERT
  8
1
  2
B25446
 10
123.3750125
 20
23.0669752029419
  0
INSERT
  8
1
  2
B25449
 10
214.5000875
 20
23.0669502029419
  0
INSERT
  8
1
  2
B25452
 10
217.670048991394
 20
19.6169502029419
  0
INSERT
  8
1
  2
B25453
 10
217.670048991394
 20
26.3669502029419
  0
INSERT
  8
1
  2
B25454
 10
154.875
 20
23.0707502029419
  0
INSERT
  8
1
  2
B25457
 10
232.5000875
 20
23.0669502029419
  0
INSERT
  8
1
  2
B25460
 10
235.670048991394
 20
19.6169502029419
  0
INSERT
  8
1
  2
B25461
 10
235.670048991394
 20
26.3669502029419
  0
INSERT
  8
1
  2
B25462
 10
122.6250125
 20
71.0669752029419
  0
INSERT
  8
1
  2
B25465
 10
124.453984869957
 20
75.0419752029418
  0
INSERT
  8
1
  2
B25466
 10
124.241844047546
 20
66.8669752029419
  0
INSERT
  8
1
  2
B25467
 10
151.950040941549
 20
44.0669502029419
  0
TEXT
  8
1
 40
1.8
 41
0.75
  1
5
  7
STANDARD
 72
1
 10
153.000040941549
 20
57.4669894472017
 11
153.000040941549
 21
57.4669894472017
  0
INSERT
  8
1
  2
B25470
 10
155.761520215487
 20
48.1317144472017
  0
INSERT
  8
1
  2
B25471
 10
155.591858702016
 20
39.716935958682
  0
INSERT
  8
1
  2
TRICON
 10
121.5
 20
54.5669752029419
  0
INSERT
  8
1
  2
B25474
 10
212.467696698284
 20
41.0631752029419
  0
INSERT
  8
1
  2
B25477
 10
216.460936455872
 20
45.5817144472017
  0
INSERT
  8
1
  2
B25478
 10
216.591274942401
 20
36.716935958682
  0
INSERT
  8
1
  2
B25479
 10
229.697971698284
 20
41.0593844020738
  0
TEXT
  8
1
 40
1.8
 41
0.75
  1
8
  7
STANDARD
 72
1
 10
232.500058569903
 20
84.4631752029418
 11
232.500058569903
 21
84.4631752029418
  0
INSERT
  8
1
  2
B25482
 10
234.460941463607
 20
45.5779394472017
  0
INSERT
  8
1
  2
B25483
 10
234.591279950136
 20
36.713160958682
  0
INSERT
  8
1
  2
TRICON
 10
121.5
 20
3.56697520294188
  0
INSERT
  8
1
  2
TRICON
 10
153.0000125
 20
3.57075020294187
  0
INSERT
  8
1
  2
TRICON
 10
214.5000375
 20
3.56693518333429
  0
INSERT
  8
1
  2
B25490
 10
206.878121205902
 20
23.0669502029419
  0
INSERT
  8
1
  2
B25491
 10
116.878096205902
 20
71.0669752029419
  0
INSERT
  8
1
  2
B25492
 10
109.261994940948
 20
23.0669752029419
  0
INSERT
  8
1
  2
B25493
 10
140.518999201965
 20
23.0707502029419
  0
INSERT
  8
1
  2
B25494
 10
224.635124990082
 20
23.0669502029419
  0
INSERT
  8
1
  2
B25495
 10
146.03512843163
 20
44.066935958682
  0
INSERT
  8
1
  2
TRICON
 10
121.5
 20
81.5669752029419
  0
TEXT
  8
1
 40
1.8
 41
0.75
  1
4
  7
STANDARD
 72
1
 10
121.5
 20
84.4669752029419
 11
121.5
 21
84.4669752029419
  0
INSERT
  8
1
  2
TRICON
 10
214.5000375
 20
81.5631752029419
  0
TEXT
  8
1
 40
1.8
 41
0.75
  1
7
  7
STANDARD
 72
1
 10
214.5000375
 20
84.4631752029419
 11
214.5000375
 21
84.4631752029419
  0
INSERT
  8
1
  2
B25500
 10
190.8749875
 20
23.0669502029419
  0
TEXT
  8
1
 40
1.8
 41
0.75
  1
6
  7
STANDARD
 72
1
 10
190.4999875
 20
36.4669502029419
 11
190.4999875
 21
36.4669502029419
  0
INSERT
  8
1
  2
B25503
 10
177.67882124939
 20
16.1039277324676
  0
INSERT
  8
1
  2
TRICON
 10
153.0000125
 20
33.5669351833343
  0
INSERT
  8
1
  2
TRICON
 10
190.5000375
 20
3.56693518333429
  0
INSERT
  8
1
  2
B25508
 10
173.7670375
 20
23.8624252029419
  0
INSERT
  8
1
  2
B25512
 10
72.4655875
 20
33.5669351833343
  0
TEXT
  8
1
 40
1.8
 41
0.75
  1
1
  7
STANDARD
 72
1
 10
73.5000078412533
 20
64.2169476833343
 11
73.5000078412533
 21
64.2169476833343
  0
INSERT
  8
1
  2
B25515
 10
79.9912135389805
 20
36.3330052480698
  0
INSERT
  8
1
  2
B25516
 10
76.1712135389805
 20
40.3969502029419
  0
INSERT
  8
1
  2
B25517
 10
76.1712135389805
 20
26.9969502029419
  0
INSERT
  8
1
  2
B25518
 10
94.5000125
 20
23.0707641098301
  0
TEXT
  8
1
 40
1.8
 41
0.75
  1
2
  7
STANDARD
 72
1
 10
94.5000125
 20
36.4669351833343
 11
94.5000125
 21
36.4669351833343
  0
INSERT
  8
1
  2
B25521
 10
97.6699683047052
 20
19.6207641098301
  0
INSERT
  8
1
  2
B25522
 10
97.6699683047052
 20
26.3707641098301
  0
INSERT
  8
1
  2
B25523
 10
84.4583772265192
 20
24.0261641098301
  0
INSERT
  8
1
  2
TRICON
 10
94.5
 20
3.56315040588379
  0
INSERT
  8
1
  2
TRICON
 10
73.5
 20
3.56315040588379
  0
INSERT
  8
1
  2
TRICON
 10
96
 20
81.5669752029419
  0
TEXT
  8
1
 40
1.8
 41
0.75
  1
2
  7
STANDARD
 72
1
 10
96
 20
84.4669752029419
 11
96
 21
84.4669752029419
  0
INSERT
  8
1
  2
B25530
 10
109.500019117496
 20
82.6169752029419
 50
90
 41
-1
  0
TEXT
  8
1
 40
1.8
 41
0.75
  1
3
  7
STANDARD
 72
1
 10
109.500019117496
 20
85.5169752029419
 11
109.500019117496
 21
85.5169752029419
  0
INSERT
  8
1
  2
B25533
 10
105.435270498807
 20
78.8054959290033
  0
INSERT
  8
1
  2
B25534
 10
113.850048987326
 20
78.9751574424743
  0
INSERT
  8
1
  2
B25535
 10
106.073306910453
 20
88.5318877128601
  0
INSERT
  8
1
  2
B25536
 10
87.7884261873722
 20
45.0261752029419
  0
INSERT
  8
1
  2
B25537
 10
82.5000122537613
 20
80.1568851833343
 50
90
  0
INSERT
  8
1
  2
B25540
 10
87.0000372537613
 20
83.3543580841593
  0
INSERT
  8
1
  2
B25541
 10
78.2250372537613
 20
83.577151973205
  0
POLYLINE
  8
1
 66
1
  0
VERTEX
  8
1
 10
67.5
 20
81.5631504058838
  0
VERTEX
  8
1
 10
78.0000122537613
 20
81.5631504058838
  0
SEQEND
  8
1
  0
POLYLINE
  8
1
 66
1
  0
VERTEX
  8
1
 10
67.4999875
 20
3.56315040588379
  0
VERTEX
  8
1
 10
73.5000125
 20
3.56315040588379
  0
SEQEND
  8
1
  0
POLYLINE
  8
1
 66
1
  0
VERTEX
  8
1
 10
232.5000875
 20
18.5669502029419
  0
VERTEX
  8
1
 10
232.5000875
 20
3.56695020294185
  0
VERTEX
  8
1
 10
214.5000625
 20
3.56695020294185
  0
SEQEND
  8
1
  0
POLYLINE
  8
1
 66
1
  0
VERTEX
  8
1
 10
121.5000125
 20
75.5669752029419
  0
VERTEX
  8
1
 10
121.5000125
 20
81.5669752029419
  0
SEQEND
  8
1
  0
POLYLINE
  8
1
 66
1
  0
VERTEX
  8
1
 10
121.5000125
 20
66.5669752029419
  0
VERTEX
  8
1
 10
121.5000125
 20
54.5669752029419
  0
SEQEND
  8
1
  0
POLYLINE
  8
1
 66
1
  0
VERTEX
  8
1
 10
153.000040941549
 20
48.5669502029419
  0
VERTEX
  8
1
 10
153.000040941549
 20
54.5669894472017
  0
VERTEX
  8
1
 10
121.5000125
 20
54.5669894472017
  0
SEQEND
  8
1
  0
POLYLINE
  8
1
 66
1
  0
VERTEX
  8
1
 10
153.000040941549
 20
39.5669502029419
  0
VERTEX
  8
1
 10
153.000040941549
 20
33.5669502029419
  0
SEQEND
  8
1
  0
POLYLINE
  8
1
 66
1
  0
VERTEX
  8
1
 10
121.5
 20
54.5669752029419
  0
VERTEX
  8
1
 10
121.5
 20
27.5669752029419
  0
SEQEND
  8
1
  0
POLYLINE
  8
1
 66
1
  0
VERTEX
  8
1
 10
214.500053562167
 20
45.56695175955
  0
VERTEX
  8
1
 10
214.500053562167
 20
81.563175202942
  0
SEQEND
  8
1
  0
POLYLINE
  8
1
 66
1
  0
VERTEX
  8
1
 10
214.500053562167
 20
36.56695175955
  0
VERTEX
  8
1
 10
214.500053562167
 20
27.5669660038099
  0
SEQEND
  8
1
  0
POLYLINE
  8
1
 66
1
  0
VERTEX
  8
1
 10
232.500058569903
 20
45.56693751529
  0
VERTEX
  8
1
 10
232.500058569903
 20
81.5631752029418
  0
VERTEX
  8
1
 10
214.500053562167
 20
81.5631752029418
  0
SEQEND
  8
1
  0
POLYLINE
  8
1
 66
1
  0
VERTEX
  8
1
 10
232.500058569903
 20
36.5631609586819
  0
VERTEX
  8
1
 10
232.500058569903
 20
27.5669502029419
  0
SEQEND
  8
1
  0
POLYLINE
  8
1
 66
1
  0
VERTEX
  8
1
 10
121.5
 20
3.56697520294188
  0
VERTEX
  8
1
 10
121.5
 20
18.5669752029419
  0
SEQEND
  8
1
  0
POLYLINE
  8
1
 66
1
  0
VERTEX
  8
1
 10
153.0000125
 20
3.57075020294187
  0
VERTEX
  8
1
 10
121.5000125
 20
3.56697520294188
  0
SEQEND
  8
1
  0
POLYLINE
  8
1
 66
1
  0
VERTEX
  8
1
 10
153.0000125
 20
3.57075020294187
  0
VERTEX
  8
1
 10
153.0000125
 20
18.5707502029419
  0
SEQEND
  8
1
  0
POLYLINE
  8
1
 66
1
  0
VERTEX
  8
1
 10
214.5000375
 20
3.56693518333429
  0
VERTEX
  8
1
 10
190.5000375
 20
3.56693518333429
  0
SEQEND
  8
1
  0
POLYLINE
  8
1
 66
1
  0
VERTEX
  8
1
 10
214.5000375
 20
3.56693518333429
  0
VERTEX
  8
1
 10
214.5000375
 20
18.5669351833343
  0
SEQEND
  8
1
  0
POLYLINE
  8
1
 66
1
  0
VERTEX
  8
1
 10
121.5
 20
81.5669752029419
  0
VERTEX
  8
1
 10
114.000006617496
 20
81.5669752029419
  0
SEQEND
  8
1
  0
POLYLINE
  8
1
 66
1
  0
VERTEX
  8
1
 10
214.5000375
 20
81.5631752029419
  0
VERTEX
  8
1
 10
121.5000125
 20
81.5669752029419
  0
SEQEND
  8
1
  0
POLYLINE
  8
1
 66
1
  0
VERTEX
  8
1
 10
190.4999875
 20
27.5669502029419
  0
VERTEX
  8
1
 10
190.4999875
 20
33.5669502029419
  0
VERTEX
  8
1
 10
152.999965941549
 20
33.5669502029419
  0
SEQEND
  8
1
  0
POLYLINE
  8
1
 66
1
  0
VERTEX
  8
1
 10
190.4999875
 20
18.5669502029419
  0
VERTEX
  8
1
 10
190.4999875
 20
11.0669502029419
  0
VERTEX
  8
1
 10
190.4999875
 20
11.0669502029419
  0
VERTEX
  8
1
 10
190.4999875
 20
3.56695020294185
  0
SEQEND
  8
1
  0
POLYLINE
  8
1
 66
1
  0
VERTEX
  8
1
 10
153.0000125
 20
33.5669351833343
  0
VERTEX
  8
1
 10
153.0000125
 20
27.5707494275941
  0
SEQEND
  8
1
  0
POLYLINE
  8
1
 66
1
  0
VERTEX
  8
1
 10
190.5000375
 20
3.56693518333429
  0
VERTEX
  8
1
 10
153.0000125
 20
3.57073518333431
  0
SEQEND
  8
1
  0
POLYLINE
  8
1
 66
1
  0
VERTEX
  8
1
 10
178.500032628835
 20
23.066930074107
  0
VERTEX
  8
1
 10
184.5000375
 20
23.066930074107
  0
SEQEND
  8
1
  0
POLYLINE
  8
1
 66
1
  0
VERTEX
  8
1
 10
73.5000078412533
 20
41.0669351833343
  0
VERTEX
  8
1
 10
73.5000078412533
 20
61.3169476833343
  0
VERTEX
  8
1
 10
96.0000125
 20
61.3169476833343
  0
VERTEX
  8
1
 10
96.0000125
 20
81.5669601833343
  0
SEQEND
  8
1
  0
POLYLINE
  8
1
 66
1
  0
VERTEX
  8
1
 10
73.5000078412533
 20
26.0669351833343
  0
VERTEX
  8
1
 10
73.5000078412533
 20
14.8150352848052
  0
VERTEX
  8
1
 10
73.5000125
 20
14.8150352848052
  0
VERTEX
  8
1
 10
73.5000125
 20
3.5631353862762
  0
SEQEND
  8
1
  0
POLYLINE
  8
1
 66
1
  0
VERTEX
  8
1
 10
81.0000078412533
 20
33.5669351833343
  0
VERTEX
  8
1
 10
94.5000125
 20
33.5669351833343
  0
VERTEX
  8
1
 10
94.5000125
 20
27.5707490902225
  0
SEQEND
  8
1
  0
POLYLINE
  8
1
 66
1
  0
VERTEX
  8
1
 10
94.5000125
 20
18.5707641098301
  0
VERTEX
  8
1
 10
94.5000125
 20
3.56315040588379
  0
SEQEND
  8
1
  0
POLYLINE
  8
1
 66
1
  0
VERTEX
  8
1
 10
94.5
 20
3.56315040588379
  0
VERTEX
  8
1
 10
121.5
 20
3.56697520294188
  0
SEQEND
  8
1
  0
POLYLINE
  8
1
 66
1
  0
VERTEX
  8
1
 10
73.5
 20
3.56315040588379
  0
VERTEX
  8
1
 10
94.5
 20
3.56315040588379
  0
SEQEND
  8
1
  0
POLYLINE
  8
1
 66
1
  0
VERTEX
  8
1
 10
105.000019117496
 20
81.5669752029419
  0
VERTEX
  8
1
 10
96.0000125
 20
81.5669752029419
  0
SEQEND
  8
1
  0
POLYLINE
  8
1
 66
1
  0
VERTEX
  8
1
 10
87.0000122537613
 20
81.5631367039255
  0
VERTEX
  8
1
 10
96
 20
81.5669752029419
  0
SEQEND
  8
1
  0
ENDSEC
  0
EOF
